<?xml version="1.0" encoding="UTF-8" standalone="no"?>
<!-- Created with Inkscape (http://www.inkscape.org/) -->

<svg
   width="153.60895mm"
   height="187.14612mm"
   viewBox="0 0 153.60895 187.14612"
   version="1.1"
   id="svg4371"
   inkscape:version="1.2.2 (b0a8486541, 2022-12-01)"
   sodipodi:docname="icon.svg"
   xmlns:inkscape="http://www.inkscape.org/namespaces/inkscape"
   xmlns:sodipodi="http://sodipodi.sourceforge.net/DTD/sodipodi-0.dtd"
   xmlns="http://www.w3.org/2000/svg"
   xmlns:svg="http://www.w3.org/2000/svg">
  <sodipodi:namedview
     id="namedview4373"
     pagecolor="#ffffff"
     bordercolor="#666666"
     borderopacity="1.0"
     inkscape:showpageshadow="2"
     inkscape:pageopacity="0.0"
     inkscape:pagecheckerboard="0"
     inkscape:deskcolor="#d1d1d1"
     inkscape:document-units="mm"
     showgrid="false"
     inkscape:zoom="0.7500982"
     inkscape:cx="334.62285"
     inkscape:cy="525.93114"
     inkscape:window-width="1920"
     inkscape:window-height="1011"
     inkscape:window-x="0"
     inkscape:window-y="32"
     inkscape:window-maximized="1"
     inkscape:current-layer="layer1" />
  <defs
     id="defs4368" />
  <g
     inkscape:label="Warstwa 1"
     inkscape:groupmode="layer"
     id="layer1"
     transform="translate(-16.588798,-17.591324)">
    <g
       id="g782"
       style="clip-rule:evenodd;fill-rule:evenodd;stroke-width:0.53905;image-rendering:optimizeQuality;shape-rendering:geometricPrecision;text-rendering:geometricPrecision"
       transform="matrix(0.47411116,0,0,0.50814338,-254.36573,-49.588323)">
      <path
         style="opacity:1;stroke-width:0.290575"
         fill="#f9e6ce"
         d="m 817.5,140.5 c 0.61,0.891 0.943,1.891 1,3 -9.762,-1.99 -19.429,-2.324 -29,-1 -2.264,0.719 -4.597,1.052 -7,1 0,-0.333 0,-0.667 0,-1 0.446,-2.51 -0.22,-4.51 -2,-6 -3.129,-3.386 -6.795,-3.886 -11,-1.5 -0.899,1.652 -1.899,3.152 -3,4.5 -0.059,-5.839 2.941,-8.172 9,-7 2,0.333 4,0.667 6,1 1.61,1.995 2.943,4.161 4,6.5 10.661,0.5 21.328,0.667 32,0.5 z"
         id="path780" />
    </g>
    <g
       id="g790"
       style="clip-rule:evenodd;fill-rule:evenodd;stroke-width:0.53905;image-rendering:optimizeQuality;shape-rendering:geometricPrecision;text-rendering:geometricPrecision"
       transform="matrix(0.47411116,0,0,0.50814338,-254.36573,-49.588323)">
      <path
         style="opacity:1;stroke-width:0.290575"
         fill="#cb885b"
         d="m 780.5,136.5 c 1.78,1.49 2.446,3.49 2,6 -1.78,-1.49 -2.446,-3.49 -2,-6 z"
         id="path788" />
    </g>
    <g
       id="g794"
       style="clip-rule:evenodd;fill-rule:evenodd;stroke-width:0.53905;image-rendering:optimizeQuality;shape-rendering:geometricPrecision;text-rendering:geometricPrecision"
       transform="matrix(0.47411116,0,0,0.50814338,-254.36573,-49.588323)">
      <path
         style="opacity:1;stroke-width:0.290575"
         fill="#df7c40"
         d="m 789.5,142.5 c 6.19,-0.323 12.19,0.01 18,1 -8.492,1.092 -16.826,1.092 -25,0 2.403,0.052 4.736,-0.281 7,-1 z"
         id="path792" />
    </g>
    <g
       id="g798"
       style="clip-rule:evenodd;fill-rule:evenodd;stroke-width:0.53905;image-rendering:optimizeQuality;shape-rendering:geometricPrecision;text-rendering:geometricPrecision"
       transform="matrix(0.47411116,0,0,0.50814338,-254.36573,-49.588323)">
      <path
         style="opacity:1;stroke-width:0.290575"
         fill="#cd8657"
         d="m 789.5,142.5 c 9.571,-1.324 19.238,-0.99 29,1 3.903,1.523 7.903,2.857 12,4 1.576,0.643 2.91,1.643 4,3 -4.561,-0.798 -8.894,-2.298 -13,-4.5 -4.584,-1.363 -9.251,-2.197 -14,-2.5 -5.81,-0.99 -11.81,-1.323 -18,-1 z"
         id="path796" />
    </g>
    <g
       id="g802"
       style="clip-rule:evenodd;fill-rule:evenodd;stroke-width:0.53905;image-rendering:optimizeQuality;shape-rendering:geometricPrecision;text-rendering:geometricPrecision"
       transform="matrix(0.47411116,0,0,0.50814338,-254.36573,-49.588323)">
      <path
         style="opacity:1;stroke-width:0.290575"
         fill="#f6d6b6"
         d="m 830.5,147.5 c 5.844,1.257 11.177,3.591 16,7 -4.199,-0.768 -8.199,-2.101 -12,-4 -1.09,-1.357 -2.424,-2.357 -4,-3 z"
         id="path800" />
    </g>
    <g
       id="g806"
       style="clip-rule:evenodd;fill-rule:evenodd;stroke-width:0.53905;image-rendering:optimizeQuality;shape-rendering:geometricPrecision;text-rendering:geometricPrecision"
       transform="matrix(0.47411116,0,0,0.50814338,-254.36573,-49.588323)">
      <path
         style="opacity:1;stroke-width:0.290575"
         fill="#e67d3c"
         d="m 807.5,143.5 c 4.749,0.303 9.416,1.137 14,2.5 4.106,2.202 8.439,3.702 13,4.5 3.801,1.899 7.801,3.232 12,4 0,0.333 0,0.667 0,1 3.714,2.571 7.714,4.571 12,6 -2.027,0.162 -4.027,-0.005 -6,-0.5 -4.769,-3.103 -9.769,-5.769 -15,-8 -4.644,0.291 -9.311,0.291 -14,0 -4.339,-4.936 -9.673,-8.103 -16,-9.5 z"
         id="path804" />
    </g>
    <g
       id="g814"
       style="clip-rule:evenodd;fill-rule:evenodd;stroke-width:0.53905;image-rendering:optimizeQuality;shape-rendering:geometricPrecision;text-rendering:geometricPrecision"
       transform="matrix(0.47411116,0,0,0.50814338,-254.36573,-49.588323)">
      <path
         style="opacity:1;stroke-width:0.290575"
         fill="#f6e2ca"
         d="m 846.5,155.5 c 0,-0.333 0,-0.667 0,-1 3.758,0.348 7.424,1.015 11,2 1.1,1.058 2.434,1.892 4,2.5 10.64,2.65 20.974,1.817 31,-2.5 0.942,0.108 1.775,0.441 2.5,1 0.796,2.539 0.629,4.872 -0.5,7 0,-1.667 0,-3.333 0,-5 -16.458,3.661 -32.458,2.328 -48,-4 z"
         id="path812" />
    </g>
    <g
       id="g818"
       style="clip-rule:evenodd;fill-rule:evenodd;stroke-width:0.53905;image-rendering:optimizeQuality;shape-rendering:geometricPrecision;text-rendering:geometricPrecision"
       transform="matrix(0.47411116,0,0,0.50814338,-254.36573,-49.588323)">
      <path
         style="opacity:1;stroke-width:0.290575"
         fill="#c98250"
         d="m 846.5,155.5 c 15.542,6.328 31.542,7.661 48,4 0,1.667 0,3.333 0,5 0,0.667 0,1.333 0,2 -0.667,2 -1.333,4 -2,6 0,-3.667 0,-7.333 0,-11 -11.003,1.303 -22.003,1.303 -33,0 -0.333,0 -0.667,0 -1,0 -4.286,-1.429 -8.286,-3.429 -12,-6 z"
         id="path816" />
    </g>
    <g
       id="g822"
       style="clip-rule:evenodd;fill-rule:evenodd;stroke-width:0.53905;image-rendering:optimizeQuality;shape-rendering:geometricPrecision;text-rendering:geometricPrecision"
       transform="matrix(0.47411116,0,0,0.50814338,-254.36573,-49.588323)">
      <path
         style="opacity:1;stroke-width:0.290575"
         fill="#ec7b33"
         d="m 780.5,136.5 c -0.446,2.51 0.22,4.51 2,6 0,0.333 0,0.667 0,1 8.174,1.092 16.508,1.092 25,0 6.327,1.397 11.661,4.564 16,9.5 4.689,0.291 9.356,0.291 14,0 5.231,2.231 10.231,4.897 15,8 1.973,0.495 3.973,0.662 6,0.5 0.333,0 0.667,0 1,0 0.763,0.768 1.763,1.268 3,1.5 9.757,-0.127 19.257,0.706 28.5,2.5 0.872,3.472 0.039,6.472 -2.5,9 0.209,0.586 0.543,1.086 1,1.5 -1.944,10.713 -3.444,21.546 -4.5,32.5 -1.02,1.391 -1.853,2.891 -2.5,4.5 0.219,3.682 0.219,7.516 0,11.5 -0.462,5.774 -1.462,11.44 -3,17 -3.374,0.174 -6.707,0.674 -10,1.5 -0.556,0.383 -0.889,0.883 -1,1.5 -1,0 -2,0 -3,0 -9.172,-0.375 -18.172,-1.875 -27,-4.5 -1.931,-0.902 -3.597,-2.069 -5,-3.5 -2.427,-2.058 -5.093,-3.891 -8,-5.5 0.333,-0.333 0.667,-0.667 1,-1 -1.601,-0.273 -3.101,-0.773 -4.5,-1.5 -0.914,1.154 -1.747,0.987 -2.5,-0.5 0.857,-0.689 1.523,-1.522 2,-2.5 3.955,-0.491 7.621,-1.491 11,-3 2.31,-4.763 2.643,-9.763 1,-15 0.086,-0.996 -0.248,-1.829 -1,-2.5 2.393,-2.39 4.393,-5.057 6,-8 -0.457,-0.414 -0.791,-0.914 -1,-1.5 1.969,-5.12 3.302,-10.453 4,-16 5.66,-10.349 2.66,-16.015 -9,-17 -2,0.167 -4,0.333 -6,0.5 -0.5,0.5 -1,1 -1.5,1.5 -1.906,7.533 -2.74,15.2 -2.5,23 0.008,4.722 0.675,9.055 2,13 -0.14,1.624 0.527,2.79 2,3.5 -2.153,0.099 -3.819,0.933 -5,2.5 -4.178,3.222 -5.845,7.555 -5,13 -0.484,1.795 -1.817,3.295 -4,4.5 0.667,0.333 1.333,0.667 2,1 -2.297,0.018 -4.631,-0.149 -7,-0.5 0.157,-1.373 -0.01,-2.707 -0.5,-4 -4.781,1.64 -9.781,2.64 -15,3 -4.414,-0.803 -8.914,-1.303 -13.5,-1.5 -2.542,-2.136 -4.375,-4.302 -5.5,-6.5 -1.982,0.49 -3.649,1.49 -5,3 -0.889,-1.388 -1.389,-1.222 -1.5,0.5 0.405,0.945 1.072,1.612 2,2 -1.438,0.219 -2.771,0.719 -4,1.5 0.346,1.196 0.846,1.196 1.5,0 -0.046,3.3 -0.212,6.634 -0.5,10 -0.03,4.118 -0.697,8.118 -2,12 -2.69,2.539 -4.857,5.539 -6.5,9 -1.008,-0.482 -2.175,-0.648 -3.5,-0.5 -0.971,-5.072 -1.305,-10.238 -1,-15.5 0,-0.333 0,-0.667 0,-1 1.427,-1.648 2.26,-3.648 2.5,-6 0.267,-8.834 1.433,-17.501 3.5,-26 2.758,-21.062 5.924,-42.062 9.5,-63 2.461,-5.78 6.627,-7.446 12.5,-5 z"
         id="path820" />
    </g>
    <g
       id="g826"
       style="clip-rule:evenodd;fill-rule:evenodd;stroke-width:0.53905;image-rendering:optimizeQuality;shape-rendering:geometricPrecision;text-rendering:geometricPrecision"
       transform="matrix(0.47411116,0,0,0.50814338,-254.36573,-49.588323)">
      <path
         style="opacity:1;stroke-width:0.290575"
         fill="#e4b288"
         d="m 763.5,163.5 c -0.065,2.928 -0.732,5.595 -2,8 -0.206,-2.995 0.46,-5.662 2,-8 z"
         id="path824" />
    </g>
    <g
       id="g830"
       style="clip-rule:evenodd;fill-rule:evenodd;stroke-width:0.53905;image-rendering:optimizeQuality;shape-rendering:geometricPrecision;text-rendering:geometricPrecision"
       transform="matrix(0.47411116,0,0,0.50814338,-254.36573,-49.588323)">
      <path
         style="opacity:1;stroke-width:0.290575"
         fill="#cd824e"
         d="m 780.5,136.5 c -5.873,-2.446 -10.039,-0.78 -12.5,5 -3.576,20.938 -6.742,41.938 -9.5,63 -0.931,3.793 -2.265,7.459 -4,11 2.123,-14.734 4.456,-29.401 7,-44 1.268,-2.405 1.935,-5.072 2,-8 0.918,-7.681 1.918,-15.348 3,-23 0,-0.333 0,-0.667 0,-1 1.101,-1.348 2.101,-2.848 3,-4.5 4.205,-2.386 7.871,-1.886 11,1.5 z"
         id="path828" />
    </g>
    <g
       id="g834"
       style="clip-rule:evenodd;fill-rule:evenodd;stroke-width:0.53905;image-rendering:optimizeQuality;shape-rendering:geometricPrecision;text-rendering:geometricPrecision"
       transform="matrix(0.47411116,0,0,0.50814338,-254.36573,-49.588323)">
      <path
         style="opacity:1;stroke-width:0.290575"
         fill="#dd8044"
         d="m 859.5,161.5 c 10.997,1.303 21.997,1.303 33,0 0,3.667 0,7.333 0,11 -0.662,3.966 -0.995,7.966 -1,12 -1.746,7.131 -3.079,14.465 -4,22 0,0.667 0,1.333 0,2 -0.667,0 -1,0.333 -1,1 -1.7,4.887 -3.033,9.887 -4,15 0.219,-3.984 0.219,-7.818 0,-11.5 0.647,-1.609 1.48,-3.109 2.5,-4.5 1.056,-10.954 2.556,-21.787 4.5,-32.5 -0.457,-0.414 -0.791,-0.914 -1,-1.5 2.539,-2.528 3.372,-5.528 2.5,-9 -9.243,-1.794 -18.743,-2.627 -28.5,-2.5 -1.237,-0.232 -2.237,-0.732 -3,-1.5 z"
         id="path832" />
    </g>
    <g
       id="g838"
       style="clip-rule:evenodd;fill-rule:evenodd;stroke-width:0.53905;image-rendering:optimizeQuality;shape-rendering:geometricPrecision;text-rendering:geometricPrecision"
       transform="matrix(0.47411116,0,0,0.50814338,-254.36573,-49.588323)">
      <path
         style="opacity:1;stroke-width:0.290575"
         fill="#f5d9bd"
         d="m 894.5,166.5 c 0.262,6.335 -0.738,12.335 -3,18 0.005,-4.034 0.338,-8.034 1,-12 0.667,-2 1.333,-4 2,-6 z"
         id="path836" />
    </g>
    <g
       id="g842"
       style="clip-rule:evenodd;fill-rule:evenodd;stroke-width:0.53905;image-rendering:optimizeQuality;shape-rendering:geometricPrecision;text-rendering:geometricPrecision"
       transform="matrix(0.47411116,0,0,0.50814338,-254.36573,-49.588323)">
      <path
         style="opacity:1;stroke-width:0.290575"
         fill="#d67f44"
         d="m 841.5,179.5 c -0.813,1.761 -1.813,3.428 -3,5 0.892,-4.512 1.892,-9.012 3,-13.5 -0.084,-3.74 -2.084,-5.74 -6,-6 -7.674,-1.494 -11.007,1.672 -10,9.5 -0.993,8.484 -1.326,17.151 -1,26 -1.325,-3.945 -1.992,-8.278 -2,-13 -0.24,-7.8 0.594,-15.467 2.5,-23 0.5,-0.5 1,-1 1.5,-1.5 2,-0.167 4,-0.333 6,-0.5 11.66,0.985 14.66,6.651 9,17 z"
         id="path840" />
    </g>
    <g
       id="g846"
       style="clip-rule:evenodd;fill-rule:evenodd;stroke-width:0.53905;image-rendering:optimizeQuality;shape-rendering:geometricPrecision;text-rendering:geometricPrecision"
       transform="matrix(0.47411116,0,0,0.50814338,-254.36573,-49.588323)">
      <path
         style="opacity:1;stroke-width:0.290575"
         fill="#f1c39c"
         d="m 825.5,174.5 c -0.166,8.007 0,16.007 0.5,24 1.145,1.136 2.312,2.136 3.5,3 -0.667,0 -1.333,0 -2,0 -1.109,-0.057 -2.109,-0.39 -3,-1 -0.326,-8.849 0.007,-17.516 1,-26 z"
         id="path844" />
    </g>
    <g
       id="g850"
       style="clip-rule:evenodd;fill-rule:evenodd;stroke-width:0.53905;image-rendering:optimizeQuality;shape-rendering:geometricPrecision;text-rendering:geometricPrecision"
       transform="matrix(0.47411116,0,0,0.50814338,-254.36573,-49.588323)">
      <path
         style="opacity:1;stroke-width:0.290575"
         fill="#ce8452"
         d="m 837.5,184.5 c 0.333,0 0.667,0 1,0 -0.369,5.945 -1.869,11.612 -4.5,17 -2.274,1.311 -4.44,1.311 -6.5,0 0.667,0 1.333,0 2,0 2.411,0.363 3.911,-0.637 4.5,-3 1.484,-4.601 2.65,-9.268 3.5,-14 z"
         id="path848" />
    </g>
    <g
       id="g854"
       style="clip-rule:evenodd;fill-rule:evenodd;stroke-width:0.53905;image-rendering:optimizeQuality;shape-rendering:geometricPrecision;text-rendering:geometricPrecision"
       transform="matrix(0.47411116,0,0,0.50814338,-254.36573,-49.588323)">
      <path
         style="opacity:1;stroke-width:0.290575"
         fill="#f2cfab"
         d="m 891.5,184.5 c -0.287,6.727 -1.121,13.393 -2.5,20 -0.278,0.916 -0.778,1.582 -1.5,2 0.921,-7.535 2.254,-14.869 4,-22 z"
         id="path852" />
    </g>
    <g
       id="g858"
       style="clip-rule:evenodd;fill-rule:evenodd;stroke-width:0.53905;image-rendering:optimizeQuality;shape-rendering:geometricPrecision;text-rendering:geometricPrecision"
       transform="matrix(0.47411116,0,0,0.50814338,-254.36573,-49.588323)">
      <path
         style="opacity:1;stroke-width:0.290575"
         fill="#f9efdc"
         d="m 838.5,184.5 c -0.333,0 -0.667,0 -1,0 -0.85,4.732 -2.016,9.399 -3.5,14 -0.589,2.363 -2.089,3.363 -4.5,3 -1.188,-0.864 -2.355,-1.864 -3.5,-3 -0.5,-7.993 -0.666,-15.993 -0.5,-24 -1.007,-7.828 2.326,-10.994 10,-9.5 3.916,0.26 5.916,2.26 6,6 -1.108,4.488 -2.108,8.988 -3,13.5 z"
         id="path856" />
    </g>
    <g
       id="g862"
       style="clip-rule:evenodd;fill-rule:evenodd;stroke-width:0.53905;image-rendering:optimizeQuality;shape-rendering:geometricPrecision;text-rendering:geometricPrecision"
       transform="matrix(0.47411116,0,0,0.50814338,-254.36573,-49.588323)">
      <path
         style="opacity:1;stroke-width:0.290575"
         fill="#f9f9f6"
         d="m 837.5,184.5 c -2.277,3.493 -4.61,6.993 -7,10.5 0.408,2.861 -0.425,3.028 -2.5,0.5 0.214,-3.901 -0.286,-7.901 -1.5,-12 1.63,-4.886 2.63,-9.886 3,-15 2.097,-0.497 3.93,-0.83 5.5,-1 1,0.667 2,1.333 3,2 -0.251,4.956 -0.418,9.956 -0.5,15 z"
         id="path860" />
    </g>
    <g
       id="g866"
       style="clip-rule:evenodd;fill-rule:evenodd;stroke-width:0.53905;image-rendering:optimizeQuality;shape-rendering:geometricPrecision;text-rendering:geometricPrecision"
       transform="matrix(0.47411116,0,0,0.50814338,-254.36573,-49.588323)">
      <path
         style="opacity:1;stroke-width:0.290575"
         fill="#e27c3c"
         d="m 841.5,179.5 c -0.698,5.547 -2.031,10.88 -4,16 0.209,0.586 0.543,1.086 1,1.5 -1.607,2.943 -3.607,5.61 -6,8 0.752,0.671 1.086,1.504 1,2.5 -3.859,-2.088 -7.859,-2.421 -12,-1 1.181,-1.567 2.847,-2.401 5,-2.5 -1.473,-0.71 -2.14,-1.876 -2,-3.5 0.891,0.61 1.891,0.943 3,1 2.06,1.311 4.226,1.311 6.5,0 2.631,-5.388 4.131,-11.055 4.5,-17 1.187,-1.572 2.187,-3.239 3,-5 z"
         id="path864" />
    </g>
    <g
       id="g874"
       style="clip-rule:evenodd;fill-rule:evenodd;stroke-width:0.53905;image-rendering:optimizeQuality;shape-rendering:geometricPrecision;text-rendering:geometricPrecision"
       transform="matrix(0.47411116,0,0,0.50814338,-254.36573,-49.588323)">
      <path
         style="opacity:1;stroke-width:0.290575"
         fill="#f9ebd3"
         d="m 766.5,140.5 c -1.082,7.652 -2.082,15.319 -3,23 -1.54,2.338 -2.206,5.005 -2,8 -2.544,14.599 -4.877,29.266 -7,44 -0.493,2.306 -0.826,4.639 -1,7 -1.092,4.316 -2.092,8.649 -3,13 -0.561,-6.279 0.273,-12.279 2.5,-18 0.28,-4.697 0.78,-9.363 1.5,-14 -0.35,-1.991 -0.683,-3.991 -1,-6 5.469,-9.435 7.469,-19.601 6,-30.5 3.324,-6.671 4.991,-13.837 5,-21.5 0.056,-2.14 0.723,-3.806 2,-5 z"
         id="path872" />
    </g>
    <g
       id="g878"
       style="clip-rule:evenodd;fill-rule:evenodd;stroke-width:0.53905;image-rendering:optimizeQuality;shape-rendering:geometricPrecision;text-rendering:geometricPrecision"
       transform="matrix(0.47411116,0,0,0.50814338,-254.36573,-49.588323)">
      <path
         style="opacity:1;stroke-width:0.290575"
         fill="#276395"
         d="m 713.5,213.5 c -0.111,0.617 -0.444,1.117 -1,1.5 1.587,0.862 3.254,1.529 5,2 4.706,4.281 10.04,7.447 16,9.5 3.352,2.214 4.685,5.381 4,9.5 -0.425,5.622 -1.425,11.122 -3,16.5 -1.667,0 -3.333,0 -5,0 0.086,-0.996 -0.248,-1.829 -1,-2.5 -6.665,-2.666 -12.999,-5.833 -19,-9.5 -3.566,-4.369 -8.066,-7.369 -13.5,-9 -0.708,0.881 -1.542,1.547 -2.5,2 -0.781,-1.822 -1.948,-2.489 -3.5,-2 -0.667,-1.333 -1.333,-2.667 -2,-4 -0.333,0.333 -0.667,0.667 -1,1 -2.099,-0.966 -3.932,-2.3 -5.5,-4 -2.029,1.129 -2.363,0.629 -1,-1.5 -3.43,-0.459 -6.43,0.541 -9,3 2.06,1.493 2.393,3.326 1,5.5 -0.896,-5.544 -3.063,-6.211 -6.5,-2 -0.483,0.948 -0.649,1.948 -0.5,3 3.18,1.348 6.514,2.181 10,2.5 -0.667,0.333 -1.333,0.667 -2,1 0.354,1.626 0.354,3.459 0,5.5 1.052,0.149 2.052,-0.017 3,-0.5 -1.211,-0.893 -1.211,-1.726 0,-2.5 0.667,0.667 1.333,1.333 2,2 -0.391,-1.391 0.442,-2.391 2.5,-3 1.458,2.024 3.291,2.191 5.5,0.5 0.691,-1.067 1.191,-2.234 1.5,-3.5 1.092,2.431 2.259,2.431 3.5,0 0,1 0,2 0,3 -5.951,2.311 -11.284,5.644 -16,10 -3.327,2.222 -6.994,3.388 -11,3.5 -5.015,4.842 -11.015,7.676 -18,8.5 1.632,-1.332 3.299,-2.665 5,-4 -0.169,-1.617 -0.503,-3.284 -1,-5 -1.041,2.491 -1.874,2.491 -2.5,0 -0.333,0.333 -0.667,0.667 -1,1 -1.194,-2.025 -2.694,-2.359 -4.5,-1 -1.333,-1 -2.667,-2 -4,-3 -0.951,0.826 -1.951,0.992 -3,0.5 1.449,-1.117 3.116,-1.784 5,-2 -1.036,-1.617 -2.203,-1.784 -3.5,-0.5 0.077,-1.238 -0.089,-2.238 -0.5,-3 -1.361,1.528 -2.528,3.195 -3.5,5 -1.888,-2.773 -3.888,-3.106 -6,-1 -0.399,-0.228 -0.565,-0.562 -0.5,-1 -0.111,-0.617 -0.444,-1.117 -1,-1.5 9.405,-3.852 19.071,-7.019 29,-9.5 0,-1 0,-2 0,-3 2.433,0.227 4.099,-0.773 5,-3 2.104,0.299 4.104,-0.034 6,-1 4.544,-3.1 8.877,-6.433 13,-10 3.127,-3.398 6.793,-6.065 11,-8 4.791,-2.928 9.791,-3.428 15,-1.5 2.722,2.358 5.722,4.191 9,5.5 z"
         id="path876" />
    </g>
    <g
       id="g882"
       style="clip-rule:evenodd;fill-rule:evenodd;stroke-width:0.53905;image-rendering:optimizeQuality;shape-rendering:geometricPrecision;text-rendering:geometricPrecision"
       transform="matrix(0.47411116,0,0,0.50814338,-254.36573,-49.588323)">
      <path
         style="opacity:1;stroke-width:0.290575"
         fill="#db7d42"
         d="m 758.5,204.5 c -2.067,8.499 -3.233,17.166 -3.5,26 -0.24,2.352 -1.073,4.352 -2.5,6 0.498,-4.652 0.831,-9.319 1,-14 0.174,-2.361 0.507,-4.694 1,-7 1.735,-3.541 3.069,-7.207 4,-11 z"
         id="path880" />
    </g>
    <g
       id="g886"
       style="clip-rule:evenodd;fill-rule:evenodd;stroke-width:0.53905;image-rendering:optimizeQuality;shape-rendering:geometricPrecision;text-rendering:geometricPrecision"
       transform="matrix(0.47411116,0,0,0.50814338,-254.36573,-49.588323)">
      <path
         style="opacity:1;stroke-width:0.290575"
         fill="#ce814c"
         d="m 886.5,209.5 c -1.332,8.997 -2.666,17.997 -4,27 0.239,1.967 -0.094,3.801 -1,5.5 -4.353,0.836 -8.687,1.669 -13,2.5 0.111,-0.617 0.444,-1.117 1,-1.5 3.293,-0.826 6.626,-1.326 10,-1.5 1.538,-5.56 2.538,-11.226 3,-17 0.967,-5.113 2.3,-10.113 4,-15 z"
         id="path884" />
    </g>
    <g
       id="g894"
       style="clip-rule:evenodd;fill-rule:evenodd;stroke-width:0.53905;image-rendering:optimizeQuality;shape-rendering:geometricPrecision;text-rendering:geometricPrecision"
       transform="matrix(0.47411116,0,0,0.50814338,-254.36573,-49.588323)">
      <path
         style="opacity:1;stroke-width:0.290575"
         fill="#e77d39"
         d="m 816.5,219.5 c 2.065,0.017 4.065,0.35 6,1 -0.086,0.996 0.248,1.829 1,2.5 3.031,0.495 6.031,0.329 9,-0.5 -3.379,1.509 -7.045,2.509 -11,3 -0.477,0.978 -1.143,1.811 -2,2.5 0.753,1.487 1.586,1.654 2.5,0.5 1.399,0.727 2.899,1.227 4.5,1.5 -0.333,0.333 -0.667,0.667 -1,1 2.907,1.609 5.573,3.442 8,5.5 -2.667,-0.333 -5.333,-0.667 -8,-1 -6.637,-5.502 -14.303,-9.002 -23,-10.5 -9.667,-0.667 -19.333,-0.667 -29,0 -1.937,0.122 -3.27,0.955 -4,2.5 -0.333,0 -0.667,0 -1,0 -1.528,1.302 -2.528,2.969 -3,5 0.288,-3.366 0.454,-6.7 0.5,-10 -0.654,1.196 -1.154,1.196 -1.5,0 1.229,-0.781 2.562,-1.281 4,-1.5 -0.928,-0.388 -1.595,-1.055 -2,-2 0.111,-1.722 0.611,-1.888 1.5,-0.5 1.351,-1.51 3.018,-2.51 5,-3 1.125,2.198 2.958,4.364 5.5,6.5 4.586,0.197 9.086,0.697 13.5,1.5 5.219,-0.36 10.219,-1.36 15,-3 0.49,1.293 0.657,2.627 0.5,4 2.369,0.351 4.703,0.518 7,0.5 -0.667,-0.333 -1.333,-0.667 -2,-1 2.183,-1.205 3.516,-2.705 4,-4.5 z"
         id="path892" />
    </g>
    <g
       id="g898"
       style="clip-rule:evenodd;fill-rule:evenodd;stroke-width:0.53905;image-rendering:optimizeQuality;shape-rendering:geometricPrecision;text-rendering:geometricPrecision"
       transform="matrix(0.47411116,0,0,0.50814338,-254.36573,-49.588323)">
      <path
         style="opacity:1;stroke-width:0.290575"
         fill="#355f7f"
         d="m 678.5,217.5 c -4.123,3.567 -8.456,6.9 -13,10 -1.896,0.966 -3.896,1.299 -6,1 6.162,-3.916 12.495,-7.583 19,-11 z"
         id="path896" />
    </g>
    <g
       id="g902"
       style="clip-rule:evenodd;fill-rule:evenodd;stroke-width:0.53905;image-rendering:optimizeQuality;shape-rendering:geometricPrecision;text-rendering:geometricPrecision"
       transform="matrix(0.47411116,0,0,0.50814338,-254.36573,-49.588323)">
      <path
         style="opacity:1;stroke-width:0.290575"
         fill="#26649b"
         d="m 693.5,233.5 c -0.342,0.838 -1.008,1.172 -2,1 -1.241,2.431 -2.408,2.431 -3.5,0 -0.309,1.266 -0.809,2.433 -1.5,3.5 -2.209,1.691 -4.042,1.524 -5.5,-0.5 -2.058,0.609 -2.891,1.609 -2.5,3 -0.667,-0.667 -1.333,-1.333 -2,-2 -1.211,0.774 -1.211,1.607 0,2.5 -0.948,0.483 -1.948,0.649 -3,0.5 0.354,-2.041 0.354,-3.874 0,-5.5 0.667,-0.333 1.333,-0.667 2,-1 -3.486,-0.319 -6.82,-1.152 -10,-2.5 -0.149,-1.052 0.017,-2.052 0.5,-3 3.437,-4.211 5.604,-3.544 6.5,2 1.393,-2.174 1.06,-4.007 -1,-5.5 2.57,-2.459 5.57,-3.459 9,-3 -1.363,2.129 -1.029,2.629 1,1.5 1.568,1.7 3.401,3.034 5.5,4 0.333,-0.333 0.667,-0.667 1,-1 0.667,1.333 1.333,2.667 2,4 1.552,-0.489 2.719,0.178 3.5,2 z"
         id="path900" />
    </g>
    <g
       id="g906"
       style="clip-rule:evenodd;fill-rule:evenodd;stroke-width:0.53905;image-rendering:optimizeQuality;shape-rendering:geometricPrecision;text-rendering:geometricPrecision"
       transform="matrix(0.47411116,0,0,0.50814338,-254.36573,-49.588323)">
      <path
         style="opacity:1;stroke-width:0.290575"
         fill="#d8854b"
         d="m 833.5,207.5 c 1.643,5.237 1.31,10.237 -1,15 -2.969,0.829 -5.969,0.995 -9,0.5 -0.752,-0.671 -1.086,-1.504 -1,-2.5 -1.935,-0.65 -3.935,-0.983 -6,-1 -0.845,-5.445 0.822,-9.778 5,-13 4.141,-1.421 8.141,-1.088 12,1 z"
         id="path904" />
    </g>
    <g
       id="g910"
       style="clip-rule:evenodd;fill-rule:evenodd;stroke-width:0.53905;image-rendering:optimizeQuality;shape-rendering:geometricPrecision;text-rendering:geometricPrecision"
       transform="matrix(0.47411116,0,0,0.50814338,-254.36573,-49.588323)">
      <path
         style="opacity:1;stroke-width:0.290575"
         fill="#faf4e6"
         d="m 822.5,220.5 c -3.966,-4.13 -3.966,-8.297 0,-12.5 8.365,-1.928 11.865,1.238 10.5,9.5 -2.897,2.731 -6.397,3.731 -10.5,3 z"
         id="path908" />
    </g>
    <g
       id="g918"
       style="clip-rule:evenodd;fill-rule:evenodd;stroke-width:0.53905;image-rendering:optimizeQuality;shape-rendering:geometricPrecision;text-rendering:geometricPrecision"
       transform="matrix(0.47411116,0,0,0.50814338,-254.36573,-49.588323)">
      <path
         style="opacity:1;stroke-width:0.290575"
         fill="#396687"
         d="m 713.5,213.5 c 7.016,3.838 13.683,8.172 20,13 -5.96,-2.053 -11.294,-5.219 -16,-9.5 -1.746,-0.471 -3.413,-1.138 -5,-2 0.556,-0.383 0.889,-0.883 1,-1.5 z"
         id="path916" />
    </g>
    <g
       id="g922"
       style="clip-rule:evenodd;fill-rule:evenodd;stroke-width:0.53905;image-rendering:optimizeQuality;shape-rendering:geometricPrecision;text-rendering:geometricPrecision"
       transform="matrix(0.47411116,0,0,0.50814338,-254.36573,-49.588323)">
      <path
         style="opacity:1;stroke-width:0.290575"
         fill="#365d7e"
         d="m 713.5,213.5 c -3.278,-1.309 -6.278,-3.142 -9,-5.5 -5.209,-1.928 -10.209,-1.428 -15,1.5 1.074,-1.385 2.407,-2.551 4,-3.5 8.298,-1.678 14.965,0.822 20,7.5 z"
         id="path920" />
    </g>
    <g
       id="g926"
       style="clip-rule:evenodd;fill-rule:evenodd;stroke-width:0.53905;image-rendering:optimizeQuality;shape-rendering:geometricPrecision;text-rendering:geometricPrecision"
       transform="matrix(0.47411116,0,0,0.50814338,-254.36573,-49.588323)">
      <path
         style="opacity:1;stroke-width:0.290575"
         fill="#cf8b5a"
         d="m 825.5,235.5 c -6,-2.333 -12,-4.667 -18,-7 -0.333,0 -0.667,0 -1,0 -5.755,-2.51 -11.922,-3.51 -18.5,-3 -6.291,-0.171 -12.458,0.496 -18.5,2 0.73,-1.545 2.063,-2.378 4,-2.5 9.667,-0.667 19.333,-0.667 29,0 8.697,1.498 16.363,4.998 23,10.5 z"
         id="path924" />
    </g>
    <g
       id="g930"
       style="clip-rule:evenodd;fill-rule:evenodd;stroke-width:0.53905;image-rendering:optimizeQuality;shape-rendering:geometricPrecision;text-rendering:geometricPrecision"
       transform="matrix(0.47411116,0,0,0.50814338,-254.36573,-49.588323)">
      <path
         style="opacity:1;stroke-width:0.290575"
         fill="#f8e8cf"
         d="m 806.5,228.5 c -4.73,-1.016 -9.396,-1.016 -14,0 -7.353,-1.156 -15.02,-1.156 -23,0 0.466,4.482 -0.534,8.482 -3,12 0.559,-4.353 1.225,-8.686 2,-13 0.333,0 0.667,0 1,0 6.042,-1.504 12.209,-2.171 18.5,-2 6.578,-0.51 12.745,0.49 18.5,3 z"
         id="path928" />
    </g>
    <g
       id="g934"
       style="clip-rule:evenodd;fill-rule:evenodd;stroke-width:0.53905;image-rendering:optimizeQuality;shape-rendering:geometricPrecision;text-rendering:geometricPrecision"
       transform="matrix(0.47411116,0,0,0.50814338,-254.36573,-49.588323)">
      <path
         style="opacity:1;stroke-width:0.290575"
         fill="#f3cfad"
         d="m 887.5,208.5 c -0.301,6.712 -0.968,13.378 -2,20 -0.751,2.746 -1.751,5.413 -3,8 1.334,-9.003 2.668,-18.003 4,-27 0,-0.667 0.333,-1 1,-1 z"
         id="path932" />
    </g>
    <g
       id="g942"
       style="clip-rule:evenodd;fill-rule:evenodd;stroke-width:0.53905;image-rendering:optimizeQuality;shape-rendering:geometricPrecision;text-rendering:geometricPrecision"
       transform="matrix(0.47411116,0,0,0.50814338,-254.36573,-49.588323)">
      <path
         style="opacity:1;stroke-width:0.290575"
         fill="#325e82"
         d="m 659.5,228.5 c -0.901,2.227 -2.567,3.227 -5,3 0,1 0,2 0,3 -9.929,2.481 -19.595,5.648 -29,9.5 0.556,0.383 0.889,0.883 1,1.5 -4.399,0.591 -8.732,0.924 -13,1 -8.785,2.185 -17.785,3.685 -27,4.5 -2.869,1.596 -5.536,3.43 -8,5.5 0.057,-1.109 0.39,-2.109 1,-3 1.462,-0.958 2.795,-2.124 4,-3.5 26.578,-2.811 51.911,-9.977 76,-21.5 z"
         id="path940" />
    </g>
    <g
       id="g946"
       style="clip-rule:evenodd;fill-rule:evenodd;stroke-width:0.53905;image-rendering:optimizeQuality;shape-rendering:geometricPrecision;text-rendering:geometricPrecision"
       transform="matrix(0.47411116,0,0,0.50814338,-254.36573,-49.588323)">
      <path
         style="opacity:1;stroke-width:0.290575"
         fill="#ce7c47"
         d="m 768.5,227.5 c -0.775,4.314 -1.441,8.647 -2,13 0,1.667 0,3.333 0,5 -0.975,2.811 -1.642,5.811 -2,9 -1.451,5.459 -2.451,11.126 -3,17 -1.307,8.852 -2.973,17.519 -5,26 1.333,-10.665 2.666,-21.331 4,-32 0,-0.333 0,-0.667 0,-1 0.624,-6.603 1.624,-13.27 3,-20 1.303,-3.882 1.97,-7.882 2,-12 0.472,-2.031 1.472,-3.698 3,-5 z"
         id="path944" />
    </g>
    <g
       id="g950"
       style="clip-rule:evenodd;fill-rule:evenodd;stroke-width:0.53905;image-rendering:optimizeQuality;shape-rendering:geometricPrecision;text-rendering:geometricPrecision"
       transform="matrix(0.47411116,0,0,0.50814338,-254.36573,-49.588323)">
      <path
         style="opacity:1;stroke-width:0.290575"
         fill="#f9edd7"
         d="m 807.5,228.5 c 6,2.333 12,4.667 18,7 5.785,3.11 11.785,5.777 18,8 -9.257,-1.538 -18.257,-4.038 -27,-7.5 -2.502,-3.163 -5.502,-5.663 -9,-7.5 z"
         id="path948" />
    </g>
    <g
       id="g954"
       style="clip-rule:evenodd;fill-rule:evenodd;stroke-width:0.53905;image-rendering:optimizeQuality;shape-rendering:geometricPrecision;text-rendering:geometricPrecision"
       transform="matrix(0.47411116,0,0,0.50814338,-254.36573,-49.588323)">
      <path
         style="opacity:1;stroke-width:0.290575"
         fill="#ce8654"
         d="m 825.5,235.5 c 2.667,0.333 5.333,0.667 8,1 1.403,1.431 3.069,2.598 5,3.5 8.828,2.625 17.828,4.125 27,4.5 -4.134,0.985 -8.468,1.318 -13,1 -2.773,-1.157 -5.773,-1.824 -9,-2 -6.215,-2.223 -12.215,-4.89 -18,-8 z"
         id="path952" />
    </g>
    <g
       id="g962"
       style="clip-rule:evenodd;fill-rule:evenodd;stroke-width:0.53905;image-rendering:optimizeQuality;shape-rendering:geometricPrecision;text-rendering:geometricPrecision"
       transform="matrix(0.47411116,0,0,0.50814338,-254.36573,-49.588323)">
      <path
         style="opacity:1;stroke-width:0.290575"
         fill="#cc8858"
         d="m 753.5,222.5 c -0.169,4.681 -0.502,9.348 -1,14 0,0.333 0,0.667 0,1 -1.291,9.779 -3.291,19.446 -6,29 1.751,-10.263 3.084,-20.596 4,-31 0.908,-4.351 1.908,-8.684 3,-13 z"
         id="path960" />
    </g>
    <g
       id="g966"
       style="clip-rule:evenodd;fill-rule:evenodd;stroke-width:0.53905;image-rendering:optimizeQuality;shape-rendering:geometricPrecision;text-rendering:geometricPrecision"
       transform="matrix(0.47411116,0,0,0.50814338,-254.36573,-49.588323)">
      <path
         style="opacity:1;stroke-width:0.290575"
         fill="#345a79"
         d="m 709.5,240.5 c 6.001,3.667 12.335,6.834 19,9.5 0.752,0.671 1.086,1.504 1,2.5 -7.338,-2.997 -14.005,-6.997 -20,-12 z"
         id="path964" />
    </g>
    <g
       id="g970"
       style="clip-rule:evenodd;fill-rule:evenodd;stroke-width:0.53905;image-rendering:optimizeQuality;shape-rendering:geometricPrecision;text-rendering:geometricPrecision"
       transform="matrix(0.47411116,0,0,0.50814338,-254.36573,-49.588323)">
      <path
         style="opacity:1;stroke-width:0.290575"
         fill="#315776"
         d="m 733.5,226.5 c 0.667,0 1.333,0 2,0 0.761,0.891 1.761,1.558 3,2 0.333,1.333 0.667,2.667 1,4 -0.777,4.994 -1.444,9.994 -2,15 -0.747,2.65 -1.747,5.316 -3,8 -1.896,-0.775 -3.563,-1.775 -5,-3 1.667,0 3.333,0 5,0 1.575,-5.378 2.575,-10.878 3,-16.5 0.685,-4.119 -0.648,-7.286 -4,-9.5 z"
         id="path968" />
    </g>
    <g
       id="g974"
       style="clip-rule:evenodd;fill-rule:evenodd;stroke-width:0.53905;image-rendering:optimizeQuality;shape-rendering:geometricPrecision;text-rendering:geometricPrecision"
       transform="matrix(0.47411116,0,0,0.50814338,-254.36573,-49.588323)">
      <path
         style="opacity:1;stroke-width:0.290575"
         fill="#f8ecd5"
         d="m 885.5,228.5 c -0.289,3.606 0.044,7.106 1,10.5 -1.537,1.11 -2.203,2.61 -2,4.5 -3.333,0.667 -6.667,1.333 -10,2 -0.333,0 -0.667,0 -1,0 -7.154,1.144 -14.154,1.144 -21,0 4.532,0.318 8.866,-0.015 13,-1 1,0 2,0 3,0 4.313,-0.831 8.647,-1.664 13,-2.5 0.906,-1.699 1.239,-3.533 1,-5.5 1.249,-2.587 2.249,-5.254 3,-8 z"
         id="path972" />
    </g>
    <g
       id="g978"
       style="clip-rule:evenodd;fill-rule:evenodd;stroke-width:0.53905;image-rendering:optimizeQuality;shape-rendering:geometricPrecision;text-rendering:geometricPrecision"
       transform="matrix(0.47411116,0,0,0.50814338,-254.36573,-49.588323)">
      <path
         style="opacity:1;stroke-width:0.290575"
         fill="#28649b"
         d="m 646.5,259.5 c -1.467,-2.758 -2.133,-2.425 -2,1 -2.234,-0.12 -4.401,0.213 -6.5,1 -1.011,-0.392 -1.511,-1.059 -1.5,-2 -1.098,1.115 -2.265,1.115 -3.5,0 -0.95,0.522 -1.784,1.189 -2.5,2 -1.231,-1.151 -1.231,-2.317 0,-3.5 -3.27,-1.126 -6.103,-1.293 -8.5,-0.5 -0.308,-0.808 -0.808,-1.475 -1.5,-2 -1.032,1.54 -2.365,2.04 -4,1.5 0.667,-0.333 1.333,-0.667 2,-1 -1.769,-2.057 -3.769,-3.89 -6,-5.5 0.746,-1.236 1.079,-2.57 1,-4 4.268,-0.076 8.601,-0.409 13,-1 -0.065,0.438 0.101,0.772 0.5,1 2.112,-2.106 4.112,-1.773 6,1 0.972,-1.805 2.139,-3.472 3.5,-5 0.411,0.762 0.577,1.762 0.5,3 1.297,-1.284 2.464,-1.117 3.5,0.5 -1.884,0.216 -3.551,0.883 -5,2 1.049,0.492 2.049,0.326 3,-0.5 1.333,1 2.667,2 4,3 1.806,-1.359 3.306,-1.025 4.5,1 0.333,-0.333 0.667,-0.667 1,-1 0.626,2.491 1.459,2.491 2.5,0 0.497,1.716 0.831,3.383 1,5 -1.701,1.335 -3.368,2.668 -5,4 z"
         id="path976" />
    </g>
    <g
       id="g982"
       style="clip-rule:evenodd;fill-rule:evenodd;stroke-width:0.53905;image-rendering:optimizeQuality;shape-rendering:geometricPrecision;text-rendering:geometricPrecision"
       transform="matrix(0.47411116,0,0,0.50814338,-254.36573,-49.588323)">
      <path
         style="opacity:1;stroke-width:0.290575"
         fill="#f8e6ce"
         d="m 750.5,235.5 c -0.916,10.404 -2.249,20.737 -4,31 -0.904,0.709 -1.237,1.709 -1,3 -0.333,0 -0.667,0 -1,0 -0.147,-4.714 0.186,-9.381 1,-14 1.667,-6.763 3.334,-13.43 5,-20 z"
         id="path980" />
    </g>
    <g
       id="g986"
       style="clip-rule:evenodd;fill-rule:evenodd;stroke-width:0.53905;image-rendering:optimizeQuality;shape-rendering:geometricPrecision;text-rendering:geometricPrecision"
       transform="matrix(0.47411116,0,0,0.50814338,-254.36573,-49.588323)">
      <path
         style="opacity:1;stroke-width:0.290575"
         fill="#e4f3f6"
         d="m 709.5,240.5 c 5.995,5.003 12.662,9.003 20,12 1.437,1.225 3.104,2.225 5,3 1.253,-2.684 2.253,-5.35 3,-8 0.32,3.398 -0.013,6.732 -1,10 -1.996,1.11 -3.829,0.776 -5.5,-1 -0.333,0.333 -0.667,0.667 -1,1 -1.897,-1.516 -4.064,-2.183 -6.5,-2 0.149,-1.052 -0.017,-2.052 -0.5,-3 -0.333,0.333 -0.667,0.667 -1,1 -3.5,-1.5 -6,-4 -7.5,-7.5 -4.99,-1.579 -9.49,-4.079 -13.5,-7.5 -3.216,0.962 -6.382,2.128 -9.5,3.5 -0.979,2.403 -2.479,3.236 -4.5,2.5 -4.665,3.33 -9.331,6.664 -14,10 -0.414,-0.457 -0.914,-0.791 -1.5,-1 -5.073,3.49 -10.739,5.49 -17,6 15.215,-6.608 29.548,-14.774 43,-24.5 1,-0.667 2,-0.667 3,0 2.722,2.358 5.722,4.191 9,5.5 z"
         id="path984" />
    </g>
    <g
       id="g990"
       style="clip-rule:evenodd;fill-rule:evenodd;stroke-width:0.53905;image-rendering:optimizeQuality;shape-rendering:geometricPrecision;text-rendering:geometricPrecision"
       transform="matrix(0.47411116,0,0,0.50814338,-254.36573,-49.588323)">
      <path
         style="opacity:1;stroke-width:0.290575"
         fill="#286394"
         d="m 613.5,246.5 c 0.079,1.43 -0.254,2.764 -1,4 2.231,1.61 4.231,3.443 6,5.5 -0.667,0.333 -1.333,0.667 -2,1 1.635,0.54 2.968,0.04 4,-1.5 0.692,0.525 1.192,1.192 1.5,2 2.397,-0.793 5.23,-0.626 8.5,0.5 -1.231,1.183 -1.231,2.349 0,3.5 0.716,-0.811 1.55,-1.478 2.5,-2 1.235,1.115 2.402,1.115 3.5,0 -0.011,0.941 0.489,1.608 1.5,2 2.099,-0.787 4.266,-1.12 6.5,-1 -0.133,-3.425 0.533,-3.758 2,-1 0.03,0.997 -0.47,1.664 -1.5,2 -14.126,4.99 -28.626,8.657 -43.5,11 1.721,-2.194 4.055,-3.361 7,-3.5 -2.767,-0.678 -4.934,-2.178 -6.5,-4.5 -1.049,1.017 -2.216,1.184 -3.5,0.5 -0.833,-1.5 -2,-2.667 -3.5,-3.5 -0.617,-0.949 -0.451,-1.782 0.5,-2.5 -3.458,-1.195 -6.458,-3.028 -9,-5.5 -1.569,1.214 -2.402,2.881 -2.5,5 -0.333,-1 -0.667,-2 -1,-3 -1.438,2.298 -2.271,4.465 -2.5,6.5 1.051,1.385 2.384,2.385 4,3 -0.753,1.487 -1.586,1.654 -2.5,0.5 -0.791,1.245 -1.291,2.578 -1.5,4 -0.722,-0.418 -1.222,-1.084 -1.5,-2 -0.499,-3.652 -0.665,-7.318 -0.5,-11 2.464,-2.07 5.131,-3.904 8,-5.5 9.215,-0.815 18.215,-2.315 27,-4.5 z"
         id="path988" />
    </g>
    <g
       id="g994"
       style="clip-rule:evenodd;fill-rule:evenodd;stroke-width:0.53905;image-rendering:optimizeQuality;shape-rendering:geometricPrecision;text-rendering:geometricPrecision"
       transform="matrix(0.47411116,0,0,0.50814338,-254.36573,-49.588323)">
      <path
         style="opacity:1;stroke-width:0.290575"
         fill="#265d95"
         d="m 602.5,250.5 c 1.484,2.199 3.484,4.032 6,5.5 -2.231,2.197 -2.231,4.53 0,7 -3.395,0.108 -7.062,-0.392 -11,-1.5 0.212,-4.938 -1.954,-6.938 -6.5,-6 -0.374,-0.916 -0.874,-1.75 -1.5,-2.5 2.763,-0.219 5.597,-0.052 8.5,0.5 1.666,-0.848 3.166,-1.848 4.5,-3 z"
         id="path992" />
    </g>
    <g
       id="g998"
       style="clip-rule:evenodd;fill-rule:evenodd;stroke-width:0.53905;image-rendering:optimizeQuality;shape-rendering:geometricPrecision;text-rendering:geometricPrecision"
       transform="matrix(0.47411116,0,0,0.50814338,-254.36573,-49.588323)">
      <path
         style="opacity:1;stroke-width:0.290575"
         fill="#27649c"
         d="m 601.5,272.5 c -1.47,1.651 -2.803,3.485 -4,5.5 0.808,0.308 1.475,0.808 2,1.5 -0.598,1.295 -1.098,2.628 -1.5,4 -1.049,-1.607 -2.549,-2.273 -4.5,-2 0.383,-2.962 -0.617,-3.962 -3,-3 -1.247,-1.506 -1.247,-3.006 0,-4.5 -1.496,-0.507 -2.663,-0.007 -3.5,1.5 -2.868,-1.344 -5.035,-3.344 -6.5,-6 0.209,-1.422 0.709,-2.755 1.5,-4 0.914,1.154 1.747,0.987 2.5,-0.5 -1.616,-0.615 -2.949,-1.615 -4,-3 0.229,-2.035 1.062,-4.202 2.5,-6.5 0.333,1 0.667,2 1,3 0.098,-2.119 0.931,-3.786 2.5,-5 2.542,2.472 5.542,4.305 9,5.5 -0.951,0.718 -1.117,1.551 -0.5,2.5 1.5,0.833 2.667,2 3.5,3.5 1.284,0.684 2.451,0.517 3.5,-0.5 1.566,2.322 3.733,3.822 6.5,4.5 -2.945,0.139 -5.279,1.306 -7,3.5 z"
         id="path996" />
    </g>
    <g
       id="g1006"
       style="clip-rule:evenodd;fill-rule:evenodd;stroke-width:0.53905;image-rendering:optimizeQuality;shape-rendering:geometricPrecision;text-rendering:geometricPrecision"
       transform="matrix(0.47411116,0,0,0.50814338,-254.36573,-49.588323)">
      <path
         style="opacity:1;stroke-width:0.290575"
         fill="#edc5a3"
         d="m 764.5,254.5 c 0.167,6.003 -0.833,11.67 -3,17 0.549,-5.874 1.549,-11.541 3,-17 z"
         id="path1004" />
    </g>
    <g
       id="g1010"
       style="clip-rule:evenodd;fill-rule:evenodd;stroke-width:0.53905;image-rendering:optimizeQuality;shape-rendering:geometricPrecision;text-rendering:geometricPrecision"
       transform="matrix(0.47411116,0,0,0.50814338,-254.36573,-49.588323)">
      <path
         style="opacity:1;stroke-width:0.290575"
         fill="#396282"
         d="m 709.5,240.5 c -3.278,-1.309 -6.278,-3.142 -9,-5.5 -1,-0.667 -2,-0.667 -3,0 -13.452,9.726 -27.785,17.892 -43,24.5 -3.779,1.058 -7.446,2.391 -11,4 -12.313,3.826 -24.647,7.16 -37,10 -0.333,0 -0.667,0 -1,0 -1.333,13.817 -1.999,27.984 -2,42.5 -3.86,31.691 1.64,61.524 16.5,89.5 2.277,3.58 4.777,6.914 7.5,10 0.624,2.254 1.957,3.921 4,5 1.615,2.95 3.615,5.616 6,8 0.065,0.438 -0.101,0.772 -0.5,1 -20.269,-20.54 -31.936,-45.207 -35,-74 -0.5,-27.665 -0.667,-55.331 -0.5,-83 14.874,-2.343 29.374,-6.01 43.5,-11 1.03,-0.336 1.53,-1.003 1.5,-2 6.985,-0.824 12.985,-3.658 18,-8.5 4.006,-0.112 7.673,-1.278 11,-3.5 4.716,-4.356 10.049,-7.689 16,-10 0,-1 0,-2 0,-3 0.992,0.172 1.658,-0.162 2,-1 0.958,-0.453 1.792,-1.119 2.5,-2 5.434,1.631 9.934,4.631 13.5,9 z"
         id="path1008" />
    </g>
    <g
       id="g1014"
       style="clip-rule:evenodd;fill-rule:evenodd;stroke-width:0.53905;image-rendering:optimizeQuality;shape-rendering:geometricPrecision;text-rendering:geometricPrecision"
       transform="matrix(0.47411116,0,0,0.50814338,-254.36573,-49.588323)">
      <path
         style="opacity:1;stroke-width:0.290575"
         fill="#f9ebd7"
         d="m 766.5,245.5 c -0.186,6.821 -0.186,13.488 0,20 -3.367,8.025 -5.367,16.359 -6,25 0.111,0.617 0.444,1.117 1,1.5 -2.279,3.621 -3.613,7.621 -4,12 -0.336,1.03 -1.003,1.53 -2,1.5 0.174,-2.361 0.507,-4.694 1,-7 0,-0.333 0,-0.667 0,-1 2.027,-8.481 3.693,-17.148 5,-26 2.167,-5.33 3.167,-10.997 3,-17 0.358,-3.189 1.025,-6.189 2,-9 z"
         id="path1012" />
    </g>
    <g
       id="g1018"
       style="clip-rule:evenodd;fill-rule:evenodd;stroke-width:0.53905;image-rendering:optimizeQuality;shape-rendering:geometricPrecision;text-rendering:geometricPrecision"
       transform="matrix(0.47411116,0,0,0.50814338,-254.36573,-49.588323)">
      <path
         style="opacity:1;stroke-width:0.290575"
         fill="#ea782f"
         d="m 760.5,264.5 c 0,0.333 0,0.667 0,1 -0.722,0.418 -1.222,1.084 -1.5,2 -1.353,7.948 -2.853,15.948 -4.5,24 -0.876,0.751 -1.876,1.251 -3,1.5 1.196,0.654 1.196,1.154 0,1.5 -1.32,-1.77 -2.82,-2.103 -4.5,-1 -0.944,-0.763 -1.444,-1.763 -1.5,-3 0.328,-10.905 2.328,-21.572 6,-32 3.116,-1.303 5.949,-2.97 8.5,-5 0.499,3.652 0.665,7.318 0.5,11 z"
         id="path1016" />
    </g>
    <g
       id="g1022"
       style="clip-rule:evenodd;fill-rule:evenodd;stroke-width:0.53905;image-rendering:optimizeQuality;shape-rendering:geometricPrecision;text-rendering:geometricPrecision"
       transform="matrix(0.47411116,0,0,0.50814338,-254.36573,-49.588323)">
      <path
         style="opacity:1;stroke-width:0.290575"
         fill="#d6ebf1"
         d="m 643.5,263.5 c -1.124,2.769 -2.957,3.769 -5.5,3 -9.85,4.919 -20.35,7.252 -31.5,7 12.353,-2.84 24.687,-6.174 37,-10 z"
         id="path1020" />
    </g>
    <g
       id="g1038"
       style="clip-rule:evenodd;fill-rule:evenodd;stroke-width:0.53905;image-rendering:optimizeQuality;shape-rendering:geometricPrecision;text-rendering:geometricPrecision"
       transform="matrix(0.47411116,0,0,0.50814338,-254.36573,-49.588323)">
      <path
         style="opacity:1;stroke-width:0.290575"
         fill="#f9f0dd"
         d="m 744.5,269.5 c -0.606,8.059 -1.606,16.059 -3,24 -0.667,1.333 -1.333,2.667 -2,4 -0.166,-5.676 10e-4,-11.343 0.5,-17 0.309,-1.266 0.809,-2.433 1.5,-3.5 -0.667,-0.333 -1.333,-0.667 -2,-1 1.58,-2.261 3.246,-4.427 5,-6.5 z"
         id="path1036" />
    </g>
    <g
       id="g1042"
       style="clip-rule:evenodd;fill-rule:evenodd;stroke-width:0.53905;image-rendering:optimizeQuality;shape-rendering:geometricPrecision;text-rendering:geometricPrecision"
       transform="matrix(0.47411116,0,0,0.50814338,-254.36573,-49.588323)">
      <path
         style="opacity:1;stroke-width:0.290575"
         fill="#ebf7f8"
         d="m 605.5,273.5 c -0.856,3.969 -0.689,7.969 0.5,12 0.75,0.626 1.584,1.126 2.5,1.5 -3.719,3.109 -3.385,6.109 1,9 -0.087,2.13 -0.087,4.297 0,6.5 -0.346,1.196 -0.846,1.196 -1.5,0 -0.5,2 -1,4 -1.5,6 0.954,2.311 1.288,4.478 1,6.5 -2.541,7.55 -2.208,15.05 1,22.5 -0.59,1.299 -1.59,2.132 -3,2.5 1.211,1.113 1.211,2.28 0,3.5 0.606,2.209 1.273,4.376 2,6.5 -1.425,1.714 -1.092,3.047 1,4 -0.522,0.561 -0.855,1.228 -1,2 2.742,2.614 2.409,4.781 -1,6.5 3.017,11.512 6.35,23.179 10,35 1.89,-0.203 3.39,0.463 4.5,2 0.771,2.69 1.604,5.356 2.5,8 3.394,1.609 4.727,4.276 4,8 -2.723,-3.086 -5.223,-6.42 -7.5,-10 -14.86,-27.976 -20.36,-57.809 -16.5,-89.5 10e-4,-14.516 0.667,-28.683 2,-42.5 z"
         id="path1040" />
    </g>
    <g
       id="g1046"
       style="clip-rule:evenodd;fill-rule:evenodd;stroke-width:0.53905;image-rendering:optimizeQuality;shape-rendering:geometricPrecision;text-rendering:geometricPrecision"
       transform="matrix(0.47411116,0,0,0.50814338,-254.36573,-49.588323)">
      <path
         style="opacity:1;stroke-width:0.290575"
         fill="#e67c39"
         d="m 752.5,237.5 c -0.305,5.262 0.029,10.428 1,15.5 1.325,-0.148 2.492,0.018 3.5,0.5 1.643,-3.461 3.81,-6.461 6.5,-9 -1.376,6.73 -2.376,13.397 -3,20 0.165,-3.682 -10e-4,-7.348 -0.5,-11 -2.551,2.03 -5.384,3.697 -8.5,5 -3.672,10.428 -5.672,21.095 -6,32 0.056,1.237 0.556,2.237 1.5,3 1.68,-1.103 3.18,-0.77 4.5,1 1.196,-0.346 1.196,-0.846 0,-1.5 1.124,-0.249 2.124,-0.749 3,-1.5 1.647,-8.052 3.147,-16.052 4.5,-24 0.278,-0.916 0.778,-1.582 1.5,-2 -1.334,10.669 -2.667,21.335 -4,32 0,0.333 0,0.667 0,1 -2.759,4.772 -5.093,9.772 -7,15 -1.085,2.087 -2.751,3.42 -5,4 -1.935,0.65 -3.935,0.983 -6,1 3.561,-16.15 5.894,-32.484 7,-49 -0.237,-1.291 0.096,-2.291 1,-3 2.709,-9.554 4.709,-19.221 6,-29 z"
         id="path1044" />
    </g>
    <g
       id="g1050"
       style="clip-rule:evenodd;fill-rule:evenodd;stroke-width:0.53905;image-rendering:optimizeQuality;shape-rendering:geometricPrecision;text-rendering:geometricPrecision"
       transform="matrix(0.47411116,0,0,0.50814338,-254.36573,-49.588323)">
      <path
         style="opacity:1;stroke-width:0.290575"
         fill="#e7f4f8"
         d="m 777.5,246.5 c -1.331,7.658 -2.665,15.325 -4,23 7.031,1.175 14.031,2.508 21,4 0.283,28.685 -0.05,57.352 -1,86 -1.333,6.333 -2.667,12.667 -4,19 -0.942,3.155 -2.276,6.155 -4,9 0.504,-4.031 1.17,-8.031 2,-12 -0.667,-1 -1.333,-2 -2,-3 4.481,-8.275 6.815,-17.109 7,-26.5 -1.013,-5.96 -1.013,-11.96 0,-18 -0.667,-3.333 -1.333,-6.667 -2,-10 1.347,-10.331 2.014,-20.331 2,-30 -0.667,-1.333 -1.333,-2.667 -2,-4 2.269,-3.411 2.269,-6.744 0,-10 -5.085,-2.148 -10.085,-1.982 -15,0.5 -1.235,-0.84 -2.235,-1.84 -3,-3 -1.713,-0.723 -2.713,-2.057 -3,-4 -0.618,-2.832 0.049,-5.499 2,-8 0.453,-0.958 1.119,-1.792 2,-2.5 0.007,-1.583 -0.326,-3.249 -1,-5 0.457,-2.956 2.123,-4.789 5,-5.5 z"
         id="path1048" />
    </g>
    <g
       id="g1054"
       style="clip-rule:evenodd;fill-rule:evenodd;stroke-width:0.53905;image-rendering:optimizeQuality;shape-rendering:geometricPrecision;text-rendering:geometricPrecision"
       transform="matrix(0.47411116,0,0,0.50814338,-254.36573,-49.588323)">
      <path
         style="opacity:1;stroke-width:0.290575"
         fill="#2b5f86"
         d="m 578.5,256.5 c -0.165,3.682 10e-4,7.348 0.5,11 0.278,0.916 0.778,1.582 1.5,2 -0.29,7.956 -0.624,15.956 -1,24 1.53,2.02 2.197,4.02 2,6 -0.667,0.667 -1.333,1.333 -2,2 1.108,18.221 1.108,36.387 0,54.5 0.937,6.809 1.604,13.643 2,20.5 -1.688,-5.086 -2.854,-10.42 -3.5,-16 -0.831,-34.836 -0.664,-69.502 0.5,-104 z"
         id="path1052" />
    </g>
    <g
       id="g1058"
       style="clip-rule:evenodd;fill-rule:evenodd;stroke-width:0.53905;image-rendering:optimizeQuality;shape-rendering:geometricPrecision;text-rendering:geometricPrecision"
       transform="matrix(0.47411116,0,0,0.50814338,-254.36573,-49.588323)">
      <path
         style="opacity:1;stroke-width:0.290575"
         fill="#dff1f4"
         d="m 708.5,340.5 c -6.333,-6.667 -12.667,-13.333 -19,-20 -7.396,-9.571 -15.396,-18.738 -24,-27.5 -6.65,-3.057 -13.317,-3.224 -20,-0.5 0.622,-1.835 1.956,-3.002 4,-3.5 4.313,-0.735 8.647,-1.235 13,-1.5 -0.149,1.052 0.017,2.052 0.5,3 0.333,-0.333 0.667,-0.667 1,-1 5.833,3.833 10.667,8.667 14.5,14.5 4.031,0.903 6.031,3.403 6,7.5 4.572,0.737 7.405,3.403 8.5,8 4.347,1.345 6.18,4.345 5.5,9 1.89,-0.203 3.39,0.463 4.5,2 2.927,2.753 4.76,6.086 5.5,10 z"
         id="path1056" />
    </g>
    <g
       id="g1062"
       style="clip-rule:evenodd;fill-rule:evenodd;stroke-width:0.53905;image-rendering:optimizeQuality;shape-rendering:geometricPrecision;text-rendering:geometricPrecision"
       transform="matrix(0.47411116,0,0,0.50814338,-254.36573,-49.588323)">
      <path
         style="opacity:1;stroke-width:0.290575"
         fill="#cb8555"
         d="m 744.5,269.5 c 0.333,0 0.667,0 1,0 -1.106,16.516 -3.439,32.85 -7,49 2.065,-0.017 4.065,-0.35 6,-1 -1.589,1.806 -3.589,3.139 -6,4 -1.21,-4.348 -1.21,-8.681 0,-13 0.493,-2.306 0.826,-4.639 1,-7 1.54,-2.338 2.206,-5.005 2,-8 1.394,-7.941 2.394,-15.941 3,-24 z"
         id="path1060" />
    </g>
    <g
       id="g1066"
       style="clip-rule:evenodd;fill-rule:evenodd;stroke-width:0.53905;image-rendering:optimizeQuality;shape-rendering:geometricPrecision;text-rendering:geometricPrecision"
       transform="matrix(0.47411116,0,0,0.50814338,-254.36573,-49.588323)">
      <path
         style="opacity:1;stroke-width:0.290575"
         fill="#dbebef"
         d="m 579.5,253.5 c -0.61,0.891 -0.943,1.891 -1,3 -1.164,34.498 -1.331,69.164 -0.5,104 0.646,5.58 1.812,10.914 3.5,16 1.839,12.189 5.839,23.522 12,34 -0.172,0.992 0.162,1.658 1,2 2.493,6.48 6.159,12.146 11,17 1.64,2.649 3.307,5.316 5,8 -1.235,-0.221 -2.235,-0.888 -3,-2 -0.586,0.209 -1.086,0.543 -1.5,1 -1.766,-2.096 -3.099,-4.429 -4,-7 -0.718,0.951 -1.551,1.117 -2.5,0.5 -1.541,-3.55 -3.874,-6.55 -7,-9 0.522,-0.561 0.855,-1.228 1,-2 -2.171,-2.752 -3.837,-5.752 -5,-9 0.333,-1 0.667,-2 1,-3 -3.406,-5.053 -5.739,-10.553 -7,-16.5 -1,0 -2,0 -3,0 -0.333,-3.184 -0.5,-6.518 -0.5,-10 -0.121,-2.227 -0.954,-4.06 -2.5,-5.5 0.09,-3.396 0.09,-6.73 0,-10 -0.628,-2.8 -1.628,-5.467 -3,-8 -0.249,-5.972 0.084,-11.805 1,-17.5 0.063,-1.981 -0.604,-3.648 -2,-5 0.811,-0.716 1.478,-1.55 2,-2.5 -0.619,-14.238 -0.619,-28.405 0,-42.5 1.566,-4.319 0.566,-7.819 -3,-10.5 1.124,-0.249 2.124,-0.749 3,-1.5 1.505,-4.051 0.839,-8.051 -2,-12 1.373,-1.99 2.373,-4.157 3,-6.5 -1.134,-1.016 -0.801,-1.683 1,-2 -0.532,-2.005 0.468,-3.171 3,-3.5 z"
         id="path1064" />
    </g>
    <g
       id="g1070"
       style="clip-rule:evenodd;fill-rule:evenodd;stroke-width:0.53905;image-rendering:optimizeQuality;shape-rendering:geometricPrecision;text-rendering:geometricPrecision"
       transform="matrix(0.47411116,0,0,0.50814338,-254.36573,-49.588323)">
      <path
         style="opacity:1;stroke-width:0.290575"
         fill="#345d7f"
         d="m 689.5,320.5 c -8.248,-7.699 -15.915,-15.866 -23,-24.5 -8.322,-6.455 -16.156,-5.955 -23.5,1.5 -0.667,2 -1.333,4 -2,6 0.162,42.012 -0.671,83.679 -2.5,125 0,-40.667 0,-81.333 0,-122 0.252,-5.839 2.586,-10.505 7,-14 6.683,-2.724 13.35,-2.557 20,0.5 8.604,8.762 16.604,17.929 24,27.5 z"
         id="path1068" />
    </g>
    <g
       id="g1074"
       style="clip-rule:evenodd;fill-rule:evenodd;stroke-width:0.53905;image-rendering:optimizeQuality;shape-rendering:geometricPrecision;text-rendering:geometricPrecision"
       transform="matrix(0.47411116,0,0,0.50814338,-254.36573,-49.588323)">
      <path
         style="opacity:1;stroke-width:0.290575"
         fill="#e1f3f6"
         d="m 817.5,376.5 c -0.59,4.397 -0.59,8.73 0,13 -1.743,1.821 -3.243,3.821 -4.5,6 -0.492,1.049 -0.326,2.049 0.5,3 -3.673,4.002 -6.339,8.669 -8,14 -0.457,0.798 -1.124,1.131 -2,1 5.481,-12.12 10.147,-24.453 14,-37 z"
         id="path1072" />
    </g>
    <g
       id="g1078"
       style="clip-rule:evenodd;fill-rule:evenodd;stroke-width:0.53905;image-rendering:optimizeQuality;shape-rendering:geometricPrecision;text-rendering:geometricPrecision"
       transform="matrix(0.47411116,0,0,0.50814338,-254.36573,-49.588323)">
      <path
         style="opacity:1;stroke-width:0.290575"
         fill="#375d7d"
         d="m 581.5,376.5 c 3.78,11.335 7.78,22.668 12,34 -6.161,-10.478 -10.161,-21.811 -12,-34 z"
         id="path1076" />
    </g>
    <g
       id="g2670"
       style="clip-rule:evenodd;fill:#296496;fill-opacity:1;fill-rule:evenodd;stroke-width:0.53905;image-rendering:optimizeQuality;shape-rendering:geometricPrecision;text-rendering:geometricPrecision"
       transform="matrix(0.47411116,0,0,0.50814338,-254.36573,-49.588323)">
      <g
         id="g1082"
         style="fill:#296496;fill-opacity:1;stroke-width:0.53905">
        <path
           style="opacity:1;fill:#296496;fill-opacity:1;stroke-width:0.53905"
           fill="#296496"
           d="m 580.5,269.5 c 1.465,2.656 3.632,4.656 6.5,6 0.837,-1.507 2.004,-2.007 3.5,-1.5 -1.247,1.494 -1.247,2.994 0,4.5 2.383,-0.962 3.383,0.038 3,3 1.951,-0.273 3.451,0.393 4.5,2 0.402,-1.372 0.902,-2.705 1.5,-4 -0.525,-0.692 -1.192,-1.192 -2,-1.5 1.197,-2.015 2.53,-3.849 4,-5.5 -0.167,27.669 0,55.335 0.5,83 3.064,28.793 14.731,53.46 35,74 0.399,-0.228 0.565,-0.562 0.5,-1 0.333,0 0.667,0 1,0 1.829,-41.321 2.662,-82.988 2.5,-125 0.667,-2 1.333,-4 2,-6 7.344,-7.455 15.178,-7.955 23.5,-1.5 7.085,8.634 14.752,16.801 23,24.5 0.497,5.149 3.163,8.649 8,10.5 3.802,4.969 8.135,9.469 13,13.5 0.667,0.333 1.333,0.667 2,1 6.326,7.658 12.992,14.992 20,22 0.617,0.111 1.117,0.444 1.5,1 0.171,-7.511 0.671,-14.845 1.5,-22 1.126,5.063 1.126,9.896 0,14.5 2.168,6.707 4.501,7.207 7,1.5 0.692,0.525 1.192,1.192 1.5,2 1.666,-0.84 1.833,-0.34 0.5,1.5 2,0.667 4,1.333 6,2 -0.603,1.825 -1.27,3.659 -2,5.5 -1.342,-1.402 -2.176,-1.069 -2.5,1 -0.758,2.269 -0.591,4.436 0.5,6.5 -0.667,0.333 -1.333,0.667 -2,1 1.385,1.965 1.218,3.798 -0.5,5.5 -0.308,-0.808 -0.808,-1.475 -1.5,-2 -0.808,1.923 -1.308,3.923 -1.5,6 -1.113,1.211 -2.28,1.211 -3.5,0 -1.299,0.59 -2.132,1.59 -2.5,3 -0.43,-2.692 -0.263,-5.359 0.5,-8 1.052,0.149 2.052,-0.017 3,-0.5 -1.612,-0.72 -3.112,-0.554 -4.5,0.5 -0.333,2.333 -0.667,4.667 -1,7 -0.448,-1.724 -1.282,-2.391 -2.5,-2 0.819,-2.416 0.152,-2.582 -2,-0.5 0.667,1.333 1.667,2.333 3,3 -2.807,2.097 -2.307,3.93 1.5,5.5 2.542,-1.402 5.208,-2.402 8,-3 0.333,0.333 0.667,0.667 1,1 1,-1.333 2,-2.667 3,-4 0.273,1.601 0.773,3.101 1.5,4.5 -1.333,0.333 -2.667,0.667 -4,1 1.41,0.368 2.41,1.201 3,2.5 -1.774,0.687 -3.441,1.52 -5,2.5 1.98,1.825 4.313,2.659 7,2.5 -3.574,1.274 -7.241,1.107 -11,-0.5 -3.842,-2.359 -7.508,-4.859 -11,-7.5 -0.667,-0.333 -1.333,-0.667 -2,-1 -11.731,-13.059 -23.065,-26.392 -34,-40 -3.154,-4.353 -5.654,-8.686 -7.5,-13 -5.672,-3.847 -10.838,-8.181 -15.5,-13 -1.333,19.655 -2,39.655 -2,60 0,20.169 0.333,40.169 1,60 0.936,1.474 2.27,2.474 4,3 5.496,3.916 11.163,7.582 17,11 -0.111,0.617 -0.444,1.117 -1,1.5 4.571,2.134 9.238,3.967 14,5.5 4.226,-0.719 7.559,-2.719 10,-6 7.69,-2.503 14.356,-6.503 20,-12 0.333,-0.667 0.667,-1.333 1,-2 7.385,-4.539 14.385,-9.705 21,-15.5 4.247,-3.742 7.914,-7.908 11,-12.5 0.333,0 0.667,0 1,0 -0.107,1.879 0.393,2.212 1.5,1 4.423,-6.511 9.089,-12.845 14,-19 5.188,-8.735 8.688,-18.068 10.5,-28 1.333,-6.333 2.667,-12.667 4,-19 1.477,-4.935 2.81,-10.102 4,-15.5 -0.992,-16.756 -1.325,-33.589 -1,-50.5 1.679,1.5 3.012,3.333 4,5.5 -0.928,0.388 -1.595,1.055 -2,2 1.009,1.168 2.009,2.335 3,3.5 -0.742,0.787 -1.575,1.453 -2.5,2 -0.034,1.68 -0.201,3.18 -0.5,4.5 0.333,0.167 0.667,0.333 1,0.5 0.751,-0.876 1.251,-1.876 1.5,-3 1.959,2.443 1.292,4.11 -2,5 -0.667,1.667 -0.667,3.333 0,5 0.333,-1 0.667,-2 1,-3 0.903,1.201 2.069,2.035 3.5,2.5 -1.525,1.009 -3.192,1.509 -5,1.5 -0.17,1.322 0.163,2.489 1,3.5 -1.878,1.993 -2.212,4.159 -1,6.5 1.763,-1.454 3.097,-1.12 4,1 -0.59,1.299 -1.59,2.132 -3,2.5 1.393,1.171 2.227,2.671 2.5,4.5 1.585,-0.876 2.585,-2.209 3,-4 1.12,1.914 1.286,3.748 0.5,5.5 0.333,0.5 0.667,1 1,1.5 0.667,-1 1.333,-2 2,-3 0.25,1.845 1.083,3.845 2.5,6 0.273,-1.601 0.773,-3.101 1.5,-4.5 -0.333,-0.333 -0.667,-0.667 -1,-1 1.955,-0.953 3.622,-2.287 5,-4 -0.667,-0.333 -1.333,-0.667 -2,-1 2.964,-0.84 3.297,-1.84 1,-3 0.663,-1.518 1.663,-2.685 3,-3.5 0.821,4.346 1.154,9.013 1,14 0.019,2.706 -0.648,5.206 -2,7.5 0.519,10.154 -0.314,20.321 -2.5,30.5 -1.185,2.37 -2.351,4.703 -3.5,7 0.108,0.942 0.441,1.775 1,2.5 -4.464,7.991 -8.13,16.491 -11,25.5 -3.114,5.914 -6.948,11.247 -11.5,16 -0.805,-2.401 -1.638,-2.234 -2.5,0.5 0.333,0.333 0.667,0.667 1,1 -2.718,3.735 -5.052,7.569 -7,11.5 -0.333,1 -1,1.667 -2,2 -0.996,0.086 -1.829,-0.248 -2.5,-1 -0.49,1.293 -0.657,2.627 -0.5,4 -1,0 -2,0 -3,0 0,1 0,2 0,3 -1,0 -2,0 -3,0 0,1 0,2 0,3 -2.314,1.182 -4.648,2.515 -7,4 -1.353,1.024 -2.02,2.357 -2,4 -4.78,0.206 -7.78,2.539 -9,7 -2.731,0.527 -5.398,1.36 -8,2.5 -4.001,3.334 -8.334,6.168 -13,8.5 -2.064,3.053 -4.397,5.72 -7,8 0,0.667 -0.333,1 -1,1 -0.06,-0.543 -0.393,-0.876 -1,-1 -3.439,1.803 -6.939,3.47 -10.5,5 -0.772,-0.145 -1.439,-0.478 -2,-1 -0.309,1.266 -0.809,2.433 -1.5,3.5 -7.69,2.666 -14.69,1.499 -21,-3.5 -0.667,0.333 -1.333,0.667 -2,1 -5.936,-3.801 -12.269,-6.801 -19,-9 -0.891,-0.61 -1.891,-0.943 -3,-1 -12.164,-7.924 -23.83,-16.59 -35,-26 -6.028,-6.36 -12.028,-12.693 -18,-19 -1.693,-2.684 -3.36,-5.351 -5,-8 -0.514,-1.866 -1.18,-3.7 -2,-5.5 -3.151,-3.85 -6.151,-7.683 -9,-11.5 -0.838,-0.342 -1.172,-1.008 -1,-2 -4.22,-11.332 -8.22,-22.665 -12,-34 -0.396,-6.857 -1.063,-13.691 -2,-20.5 1.108,-18.113 1.108,-36.279 0,-54.5 0.667,-0.667 1.333,-1.333 2,-2 0.197,-1.98 -0.47,-3.98 -2,-6 0.376,-8.044 0.71,-16.044 1,-24 z"
           id="path1080" />
      </g>
    </g>
    <g
       id="g1086"
       style="clip-rule:evenodd;fill-rule:evenodd;stroke-width:0.53905;image-rendering:optimizeQuality;shape-rendering:geometricPrecision;text-rendering:geometricPrecision"
       transform="matrix(0.47411116,0,0,0.50814338,-254.36573,-49.588323)">
      <path
         style="opacity:1;stroke-width:0.290575"
         fill="#dbedf2"
         d="m 723.5,397.5 c 0.667,0.333 1.333,0.667 2,1 5.242,8.611 12.909,11.778 23,9.5 0.916,-0.278 1.582,-0.778 2,-1.5 1.904,-0.238 3.238,-1.238 4,-3 2.039,-1.172 3.372,-2.838 4,-5 0.157,1.373 -0.01,2.707 -0.5,4 -2.265,1.416 -3.431,3.416 -3.5,6 -8.355,1.41 -16.688,1.243 -25,-0.5 -2.403,-3.311 -4.403,-6.811 -6,-10.5 z"
         id="path1084" />
    </g>
    <g
       id="g1090"
       style="clip-rule:evenodd;fill-rule:evenodd;stroke-width:0.53905;image-rendering:optimizeQuality;shape-rendering:geometricPrecision;text-rendering:geometricPrecision"
       transform="matrix(0.47411116,0,0,0.50814338,-254.36573,-49.588323)">
      <path
         style="opacity:1;stroke-width:0.290575"
         fill="#395e7f"
         d="m 725.5,398.5 c 3.492,2.641 7.158,5.141 11,7.5 3.759,1.607 7.426,1.774 11,0.5 1,0 2,0 3,0 -0.418,0.722 -1.084,1.222 -2,1.5 -10.091,2.278 -17.758,-0.889 -23,-9.5 z"
         id="path1088" />
    </g>
    <g
       id="g1094"
       style="clip-rule:evenodd;fill-rule:evenodd;stroke-width:0.53905;image-rendering:optimizeQuality;shape-rendering:geometricPrecision;text-rendering:geometricPrecision"
       transform="matrix(0.47411116,0,0,0.50814338,-254.36573,-49.588323)">
      <path
         style="opacity:1;stroke-width:0.290575"
         fill="#e3f4f9"
         d="m 638.5,306.5 c 0,40.667 0,81.333 0,122 -0.333,0 -0.667,0 -1,0 -2.385,-2.384 -4.385,-5.05 -6,-8 1.333,0 2.667,0 4,0 0.863,-6.772 1.196,-13.439 1,-20 -0.123,-2.99 -0.79,-5.823 -2,-8.5 0.586,-2.28 1.42,-4.447 2.5,-6.5 0.168,-26.503 0.668,-52.837 1.5,-79 z"
         id="path1092" />
    </g>
    <g
       id="g1098"
       style="clip-rule:evenodd;fill-rule:evenodd;stroke-width:0.53905;image-rendering:optimizeQuality;shape-rendering:geometricPrecision;text-rendering:geometricPrecision"
       transform="matrix(0.47411116,0,0,0.50814338,-254.36573,-49.588323)">
      <path
         style="opacity:1;stroke-width:0.290575"
         fill="#335c7d"
         d="m 789.5,378.5 c -1.812,9.932 -5.312,19.265 -10.5,28 -4.911,6.155 -9.577,12.489 -14,19 -1.107,1.212 -1.607,0.879 -1.5,-1 9.629,-10.918 16.962,-23.251 22,-37 1.724,-2.845 3.058,-5.845 4,-9 z"
         id="path1096" />
    </g>
    <g
       id="g1102"
       style="clip-rule:evenodd;fill-rule:evenodd;stroke-width:0.53905;image-rendering:optimizeQuality;shape-rendering:geometricPrecision;text-rendering:geometricPrecision"
       transform="matrix(0.47411116,0,0,0.50814338,-254.36573,-49.588323)">
      <path
         style="opacity:1;stroke-width:0.290575"
         fill="#7c9fb4"
         d="m 666.5,331.5 c 0,0.333 0,0.667 0,1 -0.999,39.496 -1.332,79.163 -1,119 -0.667,-19.831 -1,-39.831 -1,-60 0,-20.345 0.667,-40.345 2,-60 z"
         id="path1100" />
    </g>
    <g
       id="g1106"
       style="clip-rule:evenodd;fill-rule:evenodd;stroke-width:0.53905;image-rendering:optimizeQuality;shape-rendering:geometricPrecision;text-rendering:geometricPrecision"
       transform="matrix(0.47411116,0,0,0.50814338,-254.36573,-49.588323)">
      <path
         style="opacity:1;stroke-width:0.290575"
         fill="#28649b"
         d="m 657.5,357.5 c 1.279,1.623 2.613,3.29 4,5 0.532,5.088 -0.135,10.754 -2,17 1.083,4.093 1.083,7.927 0,11.5 2.256,1.499 2.256,3.166 0,5 0.444,1.762 0.944,1.595 1.5,-0.5 0.667,3 0.667,6 0,9 -0.333,-1 -0.667,-2 -1,-3 -0.167,0.667 -0.333,1.333 -0.5,2 2.96,5.441 2.627,10.941 -1,16.5 1.452,1.958 1.785,3.958 1,6 1,0.333 2,0.667 3,1 -0.894,2.892 -2.56,5.226 -5,7 5.414,4.822 4.747,7.155 -2,7 0.737,2.799 1.57,2.966 2.5,0.5 0.317,1.801 0.984,2.134 2,1 0.309,1.266 0.809,2.433 1.5,3.5 -3.122,5.366 -6.956,5.866 -11.5,1.5 -0.333,0.333 -0.667,0.667 -1,1 -0.374,-0.916 -0.874,-1.75 -1.5,-2.5 2.021,-0.513 3.521,-1.68 4.5,-3.5 0.906,2.621 1.406,2.454 1.5,-0.5 -0.167,-0.833 -0.333,-1.667 -0.5,-2.5 -1.367,1.024 -2.2,0.524 -2.5,-1.5 2.047,-2.524 1.38,-4.691 -2,-6.5 -0.667,2 -1.333,4 -2,6 -0.341,-1.99 -0.674,-3.99 -1,-6 2.572,-3.739 5.905,-6.572 10,-8.5 -0.808,-0.308 -1.475,-0.808 -2,-1.5 0.667,-0.333 1.333,-0.667 2,-1 -1.475,-2.841 -2.641,-5.841 -3.5,-9 -0.72,1.612 -0.554,3.112 0.5,4.5 -1.167,0.5 -2,1.333 -2.5,2.5 -0.249,-1.124 -0.749,-2.124 -1.5,-3 -4.259,3.198 -6.092,2.198 -5.5,-3 0.483,0.948 0.649,1.948 0.5,3 2.471,0.267 4.138,-0.733 5,-3 0.518,-4.369 0.518,-8.869 0,-13.5 0.747,-4.461 1.247,-8.961 1.5,-13.5 2.149,-2.224 1.649,-3.724 -1.5,-4.5 2.267,-1.081 2.434,-2.581 0.5,-4.5 -1.147,0.958 -2.147,0.625 -3,-1 -0.309,-1.266 -0.809,-2.433 -1.5,-3.5 2.406,-0.779 4.073,0.054 5,2.5 0.249,-1.082 0.415,-2.415 0.5,-4 1.163,1.785 1.83,3.785 2,6 0.333,-0.333 0.667,-0.667 1,-1 -0.528,-2.609 -0.195,-5.275 1,-8 0.75,-0.626 1.584,-1.126 2.5,-1.5 -1.333,-1.667 -1.333,-3.333 0,-5 -0.808,-0.308 -1.475,-0.808 -2,-1.5 0.438,-1.006 1.104,-1.006 2,0 0.798,-0.457 1.131,-1.124 1,-2 z"
         id="path1104" />
    </g>
    <g
       id="g1110"
       style="clip-rule:evenodd;fill-rule:evenodd;stroke-width:0.53905;image-rendering:optimizeQuality;shape-rendering:geometricPrecision;text-rendering:geometricPrecision"
       transform="matrix(0.47411116,0,0,0.50814338,-254.36573,-49.588323)">
      <path
         style="opacity:1;stroke-width:0.290575"
         fill="#e4f7f8"
         d="m 666.5,332.5 c 5.343,5.344 10.343,11.011 15,17 -3.755,-1.996 -7.421,-4.162 -11,-6.5 0.769,-2.482 -0.231,-4.315 -3,-5.5 -1.167,37.329 -1.333,74.662 -0.5,112 1.883,1.153 2.716,2.819 2.5,5 -1.73,-0.526 -3.064,-1.526 -4,-3 -0.332,-39.837 10e-4,-79.504 1,-119 z"
         id="path1108" />
    </g>
    <g
       id="g1114"
       style="clip-rule:evenodd;fill-rule:evenodd;stroke-width:0.53905;image-rendering:optimizeQuality;shape-rendering:geometricPrecision;text-rendering:geometricPrecision"
       transform="matrix(0.47411116,0,0,0.50814338,-254.36573,-49.588323)">
      <path
         style="opacity:1;stroke-width:0.290575"
         fill="#7094ac"
         d="m 757.5,321.5 c 0.06,-0.543 0.393,-0.876 1,-1 1.329,24.83 1.329,49.497 0,74 0.331,-24.506 -0.002,-48.839 -1,-73 z"
         id="path1112" />
    </g>
    <g
       id="g1118"
       style="clip-rule:evenodd;fill-rule:evenodd;stroke-width:0.53905;image-rendering:optimizeQuality;shape-rendering:geometricPrecision;text-rendering:geometricPrecision"
       transform="matrix(0.47411116,0,0,0.50814338,-254.36573,-49.588323)">
      <path
         style="opacity:1;stroke-width:0.290575"
         fill="#275679"
         d="m 757.5,321.5 c 0.998,24.161 1.331,48.494 1,73 0,1.333 0,2.667 0,4 -0.628,2.162 -1.961,3.828 -4,5 0.726,-2.679 1.559,-5.346 2.5,-8 0.833,-22.674 0.666,-45.341 -0.5,-68 -3.973,1.459 -7.973,2.793 -12,4 4.114,-3.564 8.448,-6.897 13,-10 z"
         id="path1116" />
    </g>
    <g
       id="g1122"
       style="clip-rule:evenodd;fill-rule:evenodd;stroke-width:0.53905;image-rendering:optimizeQuality;shape-rendering:geometricPrecision;text-rendering:geometricPrecision"
       transform="matrix(0.47411116,0,0,0.50814338,-254.36573,-49.588323)">
      <path
         style="opacity:1;stroke-width:0.290575"
         fill="#325d81"
         d="m 744.5,331.5 c -3.254,5.107 -6.254,10.107 -9,15 -0.829,7.155 -1.329,14.489 -1.5,22 -0.383,-0.556 -0.883,-0.889 -1.5,-1 -0.286,-7.877 0.047,-15.71 1,-23.5 2.112,-5.607 5.778,-9.774 11,-12.5 z"
         id="path1120" />
    </g>
    <g
       id="g1126"
       style="clip-rule:evenodd;fill-rule:evenodd;stroke-width:0.53905;image-rendering:optimizeQuality;shape-rendering:geometricPrecision;text-rendering:geometricPrecision"
       transform="matrix(0.47411116,0,0,0.50814338,-254.36573,-49.588323)">
      <path
         style="opacity:1;stroke-width:0.290575"
         fill="#305d81"
         d="m 666.5,332.5 c 0,-0.333 0,-0.667 0,-1 4.662,4.819 9.828,9.153 15.5,13 1.846,4.314 4.346,8.647 7.5,13 -3.027,-2.36 -5.694,-5.027 -8,-8 -4.657,-5.989 -9.657,-11.656 -15,-17 z"
         id="path1124" />
    </g>
    <g
       id="g1130"
       style="clip-rule:evenodd;fill-rule:evenodd;stroke-width:0.53905;image-rendering:optimizeQuality;shape-rendering:geometricPrecision;text-rendering:geometricPrecision"
       transform="matrix(0.47411116,0,0,0.50814338,-254.36573,-49.588323)">
      <path
         style="opacity:1;stroke-width:0.290575"
         fill="#296498"
         d="m 754.5,403.5 c -0.762,1.762 -2.096,2.762 -4,3 -1,0 -2,0 -3,0 -2.687,0.159 -5.02,-0.675 -7,-2.5 1.559,-0.98 3.226,-1.813 5,-2.5 -0.59,-1.299 -1.59,-2.132 -3,-2.5 1.333,-0.333 2.667,-0.667 4,-1 -0.727,-1.399 -1.227,-2.899 -1.5,-4.5 -1,1.333 -2,2.667 -3,4 -0.333,-0.333 -0.667,-0.667 -1,-1 -2.792,0.598 -5.458,1.598 -8,3 -3.807,-1.57 -4.307,-3.403 -1.5,-5.5 -1.333,-0.667 -2.333,-1.667 -3,-3 2.152,-2.082 2.819,-1.916 2,0.5 1.218,-0.391 2.052,0.276 2.5,2 0.333,-2.333 0.667,-4.667 1,-7 1.388,-1.054 2.888,-1.22 4.5,-0.5 -0.948,0.483 -1.948,0.649 -3,0.5 -0.763,2.641 -0.93,5.308 -0.5,8 0.368,-1.41 1.201,-2.41 2.5,-3 1.22,1.211 2.387,1.211 3.5,0 0.192,-2.077 0.692,-4.077 1.5,-6 0.692,0.525 1.192,1.192 1.5,2 1.718,-1.702 1.885,-3.535 0.5,-5.5 0.667,-0.333 1.333,-0.667 2,-1 -1.091,-2.064 -1.258,-4.231 -0.5,-6.5 0.324,-2.069 1.158,-2.402 2.5,-1 0.73,-1.841 1.397,-3.675 2,-5.5 -2,-0.667 -4,-1.333 -6,-2 1.333,-1.84 1.166,-2.34 -0.5,-1.5 -0.308,-0.808 -0.808,-1.475 -1.5,-2 -2.499,5.707 -4.832,5.207 -7,-1.5 1.126,-4.604 1.126,-9.437 0,-14.5 2.746,-4.893 5.746,-9.893 9,-15 4.027,-1.207 8.027,-2.541 12,-4 1.166,22.659 1.333,45.326 0.5,68 -0.941,2.654 -1.774,5.321 -2.5,8 z"
         id="path1128" />
    </g>
    <g
       id="g1134"
       style="clip-rule:evenodd;fill-rule:evenodd;stroke-width:0.53905;image-rendering:optimizeQuality;shape-rendering:geometricPrecision;text-rendering:geometricPrecision"
       transform="matrix(0.47411116,0,0,0.50814338,-254.36573,-49.588323)">
      <path
         style="opacity:1;stroke-width:0.290575"
         fill="#345f7f"
         d="m 689.5,320.5 c 6.333,6.667 12.667,13.333 19,20 1.1,1.105 1.767,2.438 2,4 -4.865,-4.031 -9.198,-8.531 -13,-13.5 -4.837,-1.851 -7.503,-5.351 -8,-10.5 z"
         id="path1132" />
    </g>
    <g
       id="g1142"
       style="clip-rule:evenodd;fill-rule:evenodd;stroke-width:0.53905;image-rendering:optimizeQuality;shape-rendering:geometricPrecision;text-rendering:geometricPrecision"
       transform="matrix(0.47411116,0,0,0.50814338,-254.36573,-49.588323)">
      <path
         style="opacity:1;stroke-width:0.290575"
         fill="#f6ecd8"
         d="m 755.5,305.5 c -0.559,4.353 -1.225,8.686 -2,13 -3.849,0.418 -6.849,2.085 -9,5 -2.683,0.548 -5.516,0.548 -8.5,0 -0.54,-3.851 -0.374,-7.685 0.5,-11.5 0.108,-1.681 0.775,-2.848 2,-3.5 -1.21,4.319 -1.21,8.652 0,13 2.411,-0.861 4.411,-2.194 6,-4 2.249,-0.58 3.915,-1.913 5,-4 2.985,-1.987 4.985,-4.654 6,-8 z"
         id="path1140" />
    </g>
    <g
       id="g1146"
       style="clip-rule:evenodd;fill-rule:evenodd;stroke-width:0.53905;image-rendering:optimizeQuality;shape-rendering:geometricPrecision;text-rendering:geometricPrecision"
       transform="matrix(0.47411116,0,0,0.50814338,-254.36573,-49.588323)">
      <path
         style="opacity:1;stroke-width:0.290575"
         fill="#27649b"
         d="m 590.5,297.5 c 0.768,0.763 1.268,1.763 1.5,3 0.833,-1 1.667,-2 2.5,-3 1.122,1.544 0.789,2.877 -1,4 0.346,1.196 0.846,1.196 1.5,0 0.333,3 0.667,6 1,9 0.5,-0.5 1,-1 1.5,-1.5 0.079,-1.907 -0.254,-3.907 -1,-6 0.691,-1.067 1.191,-2.234 1.5,-3.5 0.346,1.718 0.846,3.385 1.5,5 -0.333,3.242 -0.666,6.075 -1,8.5 0.667,0.667 1.333,1.333 2,2 -1.086,3.816 -2.419,6.816 -4,9 0.351,3.104 0.851,2.937 1.5,-0.5 0.829,5.033 0.662,10.033 -0.5,15 -0.751,-0.876 -1.251,-1.876 -1.5,-3 -0.953,2.092 -2.286,2.425 -4,1 -2.078,2.181 -1.911,4.181 0.5,6 -0.825,0.886 -1.825,1.219 -3,1 0.031,-3.984 -0.636,-7.817 -2,-11.5 0.333,-0.333 0.667,-0.667 1,-1 -2.474,-0.113 -4.474,-1.113 -6,-3 1.172,-0.419 2.172,-1.085 3,-2 -0.93,-1.395 -0.93,-2.895 0,-4.5 -0.324,-2.069 -1.158,-2.402 -2.5,-1 -0.483,-0.948 -0.649,-1.948 -0.5,-3 4.938,-0.463 5.271,-2.13 1,-5 0.477,-0.978 1.143,-1.811 2,-2.5 -1.439,-0.991 -2.439,-2.324 -3,-4 0.462,-1.722 0.628,-3.555 0.5,-5.5 3.197,1.85 5.697,0.85 7.5,-3 z"
         id="path1144" />
    </g>
    <g
       id="g1150"
       style="clip-rule:evenodd;fill-rule:evenodd;stroke-width:0.53905;image-rendering:optimizeQuality;shape-rendering:geometricPrecision;text-rendering:geometricPrecision"
       transform="matrix(0.47411116,0,0,0.50814338,-254.36573,-49.588323)">
      <path
         style="opacity:1;stroke-width:0.290575"
         fill="#cf824f"
         d="m 756.5,298.5 c -0.493,2.306 -0.826,4.639 -1,7 -1.015,3.346 -3.015,6.013 -6,8 1.907,-5.228 4.241,-10.228 7,-15 z"
         id="path1148" />
    </g>
    <g
       id="g1154"
       style="clip-rule:evenodd;fill-rule:evenodd;stroke-width:0.53905;image-rendering:optimizeQuality;shape-rendering:geometricPrecision;text-rendering:geometricPrecision"
       transform="matrix(0.47411116,0,0,0.50814338,-254.36573,-49.588323)">
      <path
         style="opacity:1;stroke-width:0.290575"
         fill="#ecc2a0"
         d="m 741.5,293.5 c 0.206,2.995 -0.46,5.662 -2,8 0,-1.333 0,-2.667 0,-4 0.667,-1.333 1.333,-2.667 2,-4 z"
         id="path1152" />
    </g>
    <g
       id="g1158"
       style="clip-rule:evenodd;fill-rule:evenodd;stroke-width:0.53905;image-rendering:optimizeQuality;shape-rendering:geometricPrecision;text-rendering:geometricPrecision"
       transform="matrix(0.47411116,0,0,0.50814338,-254.36573,-49.588323)">
      <path
         style="opacity:1;stroke-width:0.290575"
         fill="#385e7e"
         d="m 594.5,412.5 c 2.849,3.817 5.849,7.65 9,11.5 0.82,1.8 1.486,3.634 2,5.5 -4.841,-4.854 -8.507,-10.52 -11,-17 z"
         id="path1156" />
    </g>
    <g
       id="g1162"
       style="clip-rule:evenodd;fill-rule:evenodd;stroke-width:0.53905;image-rendering:optimizeQuality;shape-rendering:geometricPrecision;text-rendering:geometricPrecision"
       transform="matrix(0.47411116,0,0,0.50814338,-254.36573,-49.588323)">
      <path
         style="opacity:1;stroke-width:0.290575"
         fill="#355e80"
         d="m 780.5,243.5 c 10.342,3.117 21.009,5.284 32,6.5 3.413,1.077 5.913,3.244 7.5,6.5 0.667,32.333 0.667,64.667 0,97 -0.465,4.348 -0.965,8.681 -1.5,13 -0.116,3.36 -0.449,6.693 -1,10 -3.853,12.547 -8.519,24.88 -14,37 -6.164,9.648 -12.83,18.981 -20,28 -0.667,0.333 -1.333,0.667 -2,1 1.948,-3.931 4.282,-7.765 7,-11.5 -0.333,-0.333 -0.667,-0.667 -1,-1 0.862,-2.734 1.695,-2.901 2.5,-0.5 4.552,-4.753 8.386,-10.086 11.5,-16 2.87,-9.009 6.536,-17.509 11,-25.5 -0.559,-0.725 -0.892,-1.558 -1,-2.5 1.149,-2.297 2.315,-4.63 3.5,-7 2.186,-10.179 3.019,-20.346 2.5,-30.5 1.352,-2.294 2.019,-4.794 2,-7.5 0.154,-4.987 -0.179,-9.654 -1,-14 -0.286,-10.705 0.047,-21.538 1,-32.5 -0.667,-3.667 -1.333,-7.333 -2,-11 1.135,-4.748 1.302,-9.581 0.5,-14.5 -0.654,1.196 -1.154,1.196 -1.5,0 3.946,-7.449 2.279,-13.115 -5,-17 -10.895,-2.401 -21.728,-4.068 -32.5,-5 -1.273,7.017 -2.273,14.017 -3,21 6.383,2.054 12.883,3.721 19.5,5 0.997,6.968 1.33,13.968 1,21 -0.325,16.911 0.008,33.744 1,50.5 -1.19,5.398 -2.523,10.565 -4,15.5 0.95,-28.648 1.283,-57.315 1,-86 -6.969,-1.492 -13.969,-2.825 -21,-4 1.335,-7.675 2.669,-15.342 4,-23 0,-1 0,-2 0,-3 1,0 2,0 3,0 z"
         id="path1160" />
    </g>
    <g
       id="g1166"
       style="clip-rule:evenodd;fill-rule:evenodd;stroke-width:0.53905;image-rendering:optimizeQuality;shape-rendering:geometricPrecision;text-rendering:geometricPrecision"
       transform="matrix(0.47411116,0,0,0.50814338,-254.36573,-49.588323)">
      <path
         style="opacity:1;stroke-width:0.290575"
         fill="#266398"
         d="m 818.5,326.5 c -1.337,0.815 -2.337,1.982 -3,3.5 2.297,1.16 1.964,2.16 -1,3 0.667,0.333 1.333,0.667 2,1 -1.378,1.713 -3.045,3.047 -5,4 0.333,0.333 0.667,0.667 1,1 -0.727,1.399 -1.227,2.899 -1.5,4.5 -1.417,-2.155 -2.25,-4.155 -2.5,-6 -0.667,1 -1.333,2 -2,3 -0.333,-0.5 -0.667,-1 -1,-1.5 0.786,-1.752 0.62,-3.586 -0.5,-5.5 -0.415,1.791 -1.415,3.124 -3,4 -0.273,-1.829 -1.107,-3.329 -2.5,-4.5 1.41,-0.368 2.41,-1.201 3,-2.5 -0.903,-2.12 -2.237,-2.454 -4,-1 -1.212,-2.341 -0.878,-4.507 1,-6.5 -0.837,-1.011 -1.17,-2.178 -1,-3.5 1.808,0.009 3.475,-0.491 5,-1.5 -1.431,-0.465 -2.597,-1.299 -3.5,-2.5 -0.333,1 -0.667,2 -1,3 -0.667,-1.667 -0.667,-3.333 0,-5 3.292,-0.89 3.959,-2.557 2,-5 -0.249,1.124 -0.749,2.124 -1.5,3 -0.333,-0.167 -0.667,-0.333 -1,-0.5 0.299,-1.32 0.466,-2.82 0.5,-4.5 0.925,-0.547 1.758,-1.213 2.5,-2 -0.991,-1.165 -1.991,-2.332 -3,-3.5 0.405,-0.945 1.072,-1.612 2,-2 -0.988,-2.167 -2.321,-4 -4,-5.5 0.33,-7.032 -0.003,-14.032 -1,-21 -6.617,-1.279 -13.117,-2.946 -19.5,-5 0.727,-6.983 1.727,-13.983 3,-21 10.772,0.932 21.605,2.599 32.5,5 7.279,3.885 8.946,9.551 5,17 0.346,1.196 0.846,1.196 1.5,0 0.802,4.919 0.635,9.752 -0.5,14.5 0.667,3.667 1.333,7.333 2,11 -0.953,10.962 -1.286,21.795 -1,32.5 z"
         id="path1164" />
    </g>
    <g
       id="g1170"
       style="clip-rule:evenodd;fill-rule:evenodd;stroke-width:0.53905;image-rendering:optimizeQuality;shape-rendering:geometricPrecision;text-rendering:geometricPrecision"
       transform="matrix(0.47411116,0,0,0.50814338,-254.36573,-49.588323)">
      <path
         style="opacity:1;stroke-width:0.290575"
         fill="#d8ecf1"
         d="m 762.5,424.5 c -3.086,4.592 -6.753,8.758 -11,12.5 -6.615,5.795 -13.615,10.961 -21,15.5 0.719,-2.388 2.385,-3.888 5,-4.5 -1.333,-0.667 -1.333,-1.333 0,-2 3.457,-1.957 6.457,-4.457 9,-7.5 1.885,-1.109 3.885,-1.943 6,-2.5 -0.333,-0.333 -0.667,-0.667 -1,-1 2.678,-3.53 6.012,-6.03 10,-7.5 0,-1 0,-2 0,-3 1,0 2,0 3,0 z"
         id="path1168" />
    </g>
    <g
       id="g1174"
       style="clip-rule:evenodd;fill-rule:evenodd;stroke-width:0.53905;image-rendering:optimizeQuality;shape-rendering:geometricPrecision;text-rendering:geometricPrecision"
       transform="matrix(0.47411116,0,0,0.50814338,-254.36573,-49.588323)">
      <path
         style="opacity:1;stroke-width:0.290575"
         fill="#385f80"
         d="m 779.5,444.5 c -4.713,7.046 -10.713,12.713 -18,17 -0.02,-1.643 0.647,-2.976 2,-4 2.352,-1.485 4.686,-2.818 7,-4 0,-1 0,-2 0,-3 1,0 2,0 3,0 0,-1 0,-2 0,-3 1,0 2,0 3,0 -0.157,-1.373 0.01,-2.707 0.5,-4 0.671,0.752 1.504,1.086 2.5,1 z"
         id="path1172" />
    </g>
    <g
       id="g1178"
       style="clip-rule:evenodd;fill-rule:evenodd;stroke-width:0.53905;image-rendering:optimizeQuality;shape-rendering:geometricPrecision;text-rendering:geometricPrecision"
       transform="matrix(0.47411116,0,0,0.50814338,-254.36573,-49.588323)">
      <path
         style="opacity:1;stroke-width:0.290575"
         fill="#2d5876"
         d="m 729.5,454.5 c -5.644,5.497 -12.31,9.497 -20,12 6.659,-3.997 13.325,-7.997 20,-12 z"
         id="path1176" />
    </g>
    <g
       id="g1182"
       style="clip-rule:evenodd;fill-rule:evenodd;stroke-width:0.53905;image-rendering:optimizeQuality;shape-rendering:geometricPrecision;text-rendering:geometricPrecision"
       transform="matrix(0.47411116,0,0,0.50814338,-254.36573,-49.588323)">
      <path
         style="opacity:1;stroke-width:0.290575"
         fill="#e8f5f7"
         d="m 783.5,441.5 c -0.891,3.075 -2.057,6.075 -3.5,9 -2.511,2.179 -4.678,4.679 -6.5,7.5 -3.137,2.632 -6.804,4.298 -11,5 -2.575,3.583 -5.575,6.916 -9,10 -0.949,0.617 -1.782,0.451 -2.5,-0.5 -0.5,1 -1,2 -1.5,3 -2.418,0.915 -4.418,2.415 -6,4.5 -1.973,0.495 -3.973,0.662 -6,0.5 8.364,-5.852 16.364,-12.185 24,-19 7.287,-4.287 13.287,-9.954 18,-17 1,-0.333 1.667,-1 2,-2 0.667,-0.333 1.333,-0.667 2,-1 z"
         id="path1180" />
    </g>
    <g
       id="g1186"
       style="clip-rule:evenodd;fill-rule:evenodd;stroke-width:0.53905;image-rendering:optimizeQuality;shape-rendering:geometricPrecision;text-rendering:geometricPrecision"
       transform="matrix(0.47411116,0,0,0.50814338,-254.36573,-49.588323)">
      <path
         style="opacity:1;stroke-width:0.290575"
         fill="#366080"
         d="m 686.5,465.5 c 4.079,2.123 8.246,4.123 12.5,6 3.613,-1.558 7.113,-3.225 10.5,-5 -2.441,3.281 -5.774,5.281 -10,6 -4.762,-1.533 -9.429,-3.366 -14,-5.5 0.556,-0.383 0.889,-0.883 1,-1.5 z"
         id="path1184" />
    </g>
    <g
       id="g1190"
       style="clip-rule:evenodd;fill-rule:evenodd;stroke-width:0.53905;image-rendering:optimizeQuality;shape-rendering:geometricPrecision;text-rendering:geometricPrecision"
       transform="matrix(0.47411116,0,0,0.50814338,-254.36573,-49.588323)">
      <path
         style="opacity:1;stroke-width:0.290575"
         fill="#e2f3f6"
         d="m 628.5,456.5 c 11.17,9.41 22.836,18.076 35,26 -1.322,-0.17 -2.489,0.163 -3.5,1 -1.873,-2.209 -4.04,-4.042 -6.5,-5.5 -6.166,-2.218 -11.166,-5.884 -15,-11 -1.26,-1.113 -2.427,-1.28 -3.5,-0.5 -1.371,-2.871 -3.537,-4.871 -6.5,-6 -1.307,-1.365 -1.307,-2.698 0,-4 z"
         id="path1188" />
    </g>
    <g
       id="g1194"
       style="clip-rule:evenodd;fill-rule:evenodd;stroke-width:0.53905;image-rendering:optimizeQuality;shape-rendering:geometricPrecision;text-rendering:geometricPrecision"
       transform="matrix(0.47411116,0,0,0.50814338,-254.36573,-49.588323)">
      <path
         style="opacity:1;stroke-width:0.290575"
         fill="#335f84"
         d="m 761.5,461.5 c -7.636,6.815 -15.636,13.148 -24,19 -3.673,1.5 -7.006,3.5 -10,6 -1.109,0.057 -2.109,0.39 -3,1 2.603,-2.28 4.936,-4.947 7,-8 4.666,-2.332 8.999,-5.166 13,-8.5 2.602,-1.14 5.269,-1.973 8,-2.5 1.22,-4.461 4.22,-6.794 9,-7 z"
         id="path1192" />
    </g>
    <g
       id="g1198"
       style="clip-rule:evenodd;fill-rule:evenodd;stroke-width:0.53905;image-rendering:optimizeQuality;shape-rendering:geometricPrecision;text-rendering:geometricPrecision"
       transform="matrix(0.47411116,0,0,0.50814338,-254.36573,-49.588323)">
      <path
         style="opacity:1;stroke-width:0.290575"
         fill="#e2f2f5"
         d="m 727.5,486.5 c -1.442,1.32 -2.108,2.986 -2,5 -3.863,1.349 -7.53,3.183 -11,5.5 -4.868,1.04 -9.701,2.207 -14.5,3.5 -1.07,-0.028 -1.903,-0.361 -2.5,-1 3.447,-0.314 6.78,-1.148 10,-2.5 5.202,-3.101 10.535,-5.934 16,-8.5 0.667,0 1,-0.333 1,-1 0.891,-0.61 1.891,-0.943 3,-1 z"
         id="path1196" />
    </g>
    <g
       id="g1202"
       style="clip-rule:evenodd;fill-rule:evenodd;stroke-width:0.53905;image-rendering:optimizeQuality;shape-rendering:geometricPrecision;text-rendering:geometricPrecision"
       transform="matrix(0.47411116,0,0,0.50814338,-254.36573,-49.588323)">
      <path
         style="opacity:1;stroke-width:0.290575"
         fill="#356083"
         d="m 666.5,483.5 c 6.731,2.199 13.064,5.199 19,9 0.667,-0.333 1.333,-0.667 2,-1 6.31,4.999 13.31,6.166 21,3.5 0.691,-1.067 1.191,-2.234 1.5,-3.5 0.561,0.522 1.228,0.855 2,1 3.561,-1.53 7.061,-3.197 10.5,-5 0.607,0.124 0.94,0.457 1,1 -5.465,2.566 -10.798,5.399 -16,8.5 -3.22,1.352 -6.553,2.186 -10,2.5 -11.094,-4.046 -21.427,-9.379 -31,-16 z"
         id="path1200" />
    </g>
  </g>
</svg>
